<svg version="1.2" xmlns="http://www.w3.org/2000/svg" viewBox="0 0 550 550" width="550" height="550">
	<title>logoT3-VEC</title>
	<style>
		.s0 { fill: #122b2e } 
		.s1 { fill: #fcf0e2 } 
	</style>
	<g>
		<path class="s0" d="m269.7 543.9c-101.3-1.3-208-69.6-245.4-180.9-42.7-127.1 10.3-268.6 137.7-331.3 30.9-15.2 63.8-22.9 98.1-24.8 70.6-4 133.4 16.3 186.3 63.5 46.4 41.4 78.1 92.2 89.1 154 20.5 114.4-29.5 233.7-143.9 291.5-39.7 20.1-78.5 28.6-121.9 28zm6.9-9.1c9.8-0.6 19.7-0.8 29.4-2 30-3.8 58.5-12.9 85.1-27.4 82.8-45 128.4-115 138.6-208.2 4.3-39.4-1.3-78.2-16.5-114.8-40.1-96.4-111.6-152.7-216-165.4-27.3-3.3-54.4-1-81.1 5.6-53.9 13.2-98.5 41.2-134.4 83.4-35.5 41.7-56.2 89.6-61.4 144.1-2.8 29.2 0.2 58 6.7 86.6 26.9 118.2 136.3 198.5 249.6 198.1z"/>
		<path class="s1" d="m276.6 534.8c-113.3 0.5-222.7-79.8-249.7-198.1-6.5-28.6-9.5-57.4-6.7-86.6 5.2-54.5 25.9-102.5 61.4-144.1 35.9-42.1 80.6-70.1 134.4-83.4 26.7-6.6 53.8-8.9 81.1-5.6 104.4 12.7 175.9 69 216 165.5 15.2 36.6 20.8 75.4 16.5 114.8-10.1 93.1-55.8 163.1-138.6 208.2-26.6 14.4-55 23.5-85 27.2-9.7 1.3-19.6 1.4-29.4 2.1zm173.9-392.3c-9.2-4.4-18.9-7.4-28.9-9.3-5.4-1-10.7-2.4-16-3.8-2.1-0.5-4.5-1.6-5.4 1.4-0.9 3 1.8 3.4 3.8 4.2 15 6.3 30.1 12.5 45 19 8.8 3.8 16.6 9.2 22.1 17.4 0.9 1.3 2.4 2.4 1.5 4.8-4.4-2.8-8.8-5.4-13.7-6.8-11.2-3.3-22.3-6.8-31.8-14-1.3-1-3.4-2.3-4.9-0.3-1.7 2.4 0.2 4.2 2 5.4 13 8.9 24.6 20 38.3 28 2.6 1.5 5.1 3.1 7.9 4.3 10.4 4.3 19.6 9.5 21.1 22.2 0 0.2 0.2 0.3 0.2 0.4 0.4 1 1 1.8 2.2 1.5 1.3-0.3 1.2-1.5 1-2.4-0.7-3.1-1.3-6.2-2.5-9.1-12.3-30.5-27.6-59.1-51.5-82.3-10.6-10.3-21.9-20.4-29.9-32.8-8.8-13.7-21.6-22.4-34.4-31.3-1.5-1-3-1.8-4.5-0.5-1.9 1.6-0.2 3 0.7 4.2 4 5.5 6.9 11.8 12 16.6 1.1 1 2.1 2.4 0.6 3.9-1.4 1.4-2.8 0.6-4-0.3-1.1-0.8-2.1-1.6-3.1-2.5-13-10.9-28-17.9-44.3-22.1-9-2.3-18.2-4.2-27.4-5.5-4.8-0.7-9.5-2.1-14.3-1.7-1.3 0.1-2.8 0.5-3.1 2.1-0.3 1.6 1.1 1.8 2.1 2.3 22.2 10.6 44.2 21.7 68.9 25.8 3.4 0.6 7.1 1.1 10.8 4.1-2.6 0.2-4.3 0.4-6.1 0.4-7 0.1-14 0.5-20.9 1.9-2 0.4-4.9 0-4.9 3.1 0 3.1 3 2.6 4.9 3.1 13.8 3.5 28 3.7 42.2 4.1 7.7 0.2 15.3 1.1 22.4 4.2 0.9 0.4 2.4 0.8 1.8 2.4-0.5 1.2-1.5 0.9-2.5 0.7-10.9-2.3-21.9-1.2-32.9-0.8-1.8 0.1-4.6-0.7-4.9 2.1-0.3 2.5 2.5 2.3 4.1 2.8 18.8 6.2 37.6 12.3 56.4 18.5 8.2 2.7 15.6 6.6 20.7 13.8-0.4 0.4-0.6 0.6-0.8 0.8zm-173.4 299.7c8.2 0 16.3 0 24.5 0 15.5 0 31 0 46.5-0.1 7.2-0.1 10.6-2.7 10.8-9 0.2-7 3.6-11.7 9.2-15.6 9.2-6.3 18.4-12.7 27.2-19.5 26.9-21 50.5-45 67.2-75.1 6.6-12 4.6-15.4-9-15.3-24.2 0-48.3 0-72.5 0.3-6.5 0.1-10.5-2.3-13.1-8.4-5.7-13.1-12-26-17.9-38.9-4.9-10.8-4-14 5.8-20.2 6.1-3.8 11.8-8.2 16.3-13.8 18.1-22.6 8.1-55.1-19.2-61.9-12.9-3.2-24.3 0.1-34.4 8.6-3.4 2.9-4.9 2.4-6.1-2-1.3-5.1 0.1-9.6 3.2-13.6 2.8-3.5 6-6.7 9-10 3-3.4 5.2-7.1 3.2-11.8-2-4.6-6.3-4.5-10.3-4.5-30.2 0-60.3 0.2-90.5 0.3-3.4 0-6.9-0.1-8.5 3.8-1.7 4-0.5 7.5 2.4 10.5 3.5 3.6 6.9 7.3 10.6 10.6 8.5 7.7 10.3 16.5 5.8 27-17.1 39.7-35.8 78.7-53.4 118.1-2.2 4.9-6.1 6.1-10.9 6.1-24.3-0.1-48.7-0.2-73-0.2-2.5 0-5 0-7.5 0.5-4.7 0.8-6.7 3.8-5.2 8.3 1 3 2.5 5.8 4.1 8.5 16.7 28 39 51 64.4 71 10.6 8.3 21.7 15.9 32.7 23.8 3.8 2.7 6.1 5.9 6.2 10.7 0.4 9 3.4 11.9 12.3 11.9 23.5-0.1 46.8-0.1 70.1-0.1zm-119.1 1.4c4.2 0 8.3 0 12.5 0 1.8 0 4.1 0.3 4.4-2.1 0.3-2.6-2.2-2.5-3.8-3-19.1-6.2-38.3-12.4-57.4-18.6-5.9-1.9-11.3-4.9-16.1-8.8-1.1-0.9-3.1-1.8-2.3-3.4 1.2-2.2 2.9-0.3 4.3 0.3 13.4 5.9 28 6.9 41.9 11.1 1.5 0.4 3.1 0.2 3.7-1.6 0.6-1.9-0.7-2.7-2.1-3.4-1.5-0.7-3-1.4-4.5-2-14.8-6.4-29.6-12.7-44.4-19.1-7.9-3.5-14.8-8.4-19.8-15.5-0.6-0.9-1.8-1.8-0.8-3 1-1.2 2.1-0.3 3.1 0.2 5.1 2.8 10.7 4.6 16.2 6.3 8.7 2.5 16.9 6 24.2 11.5 1.9 1.4 4.1 3 6 0.2 1.9-2.8-0.5-4.2-2.3-5.6-8.1-6.1-16.3-12.1-24.3-18.4-7.4-5.8-15.1-10.9-23.8-14.6-9.6-4.1-17.6-9.5-19-21-0.2-1.3-0.8-2.7-2.6-2.2-1.6 0.4-1.1 1.8-1 2.9 0.1 0.8 0.4 1.6 0.6 2.4 2.2 11.7 8.7 21.5 13.5 32 10.2 22.4 24.6 41.8 42.2 58.9 9.7 9.4 20.2 18.2 27.2 29.8 8.7 14.2 22.2 22.7 35 32.2 1.5 1.1 3.1 1.6 4.5 0.2 1.6-1.5 0.1-2.7-0.8-3.9-4-5.5-6.9-11.8-12-16.6-1.1-1-2-2.4-0.7-3.9 1.3-1.5 2.7-0.7 4 0.2 1.1 0.7 2.1 1.6 3.1 2.5 13.6 11.1 29.1 18.5 46.2 22.5 11 2.5 22.1 4.6 33.3 6.4 2.3 0.4 4.6 0.3 7 0.3 1.2 0 2.3-0.6 2.6-1.9 0.4-1.6-0.9-1.9-2-2.4-12.2-5.3-23.8-11.9-36.3-16.6-13.1-4.9-26.6-8.3-40.4-10.9-1.3-0.2-3.3 0-3.2-1.6 0.1-2.3 2.3-1.1 3.5-1.2 7.8-0.2 15.7-0.4 23.4-2 2-0.4 4.9-0.1 5-3 0.1-3.1-2.9-2.7-4.8-3.2-13.5-3.5-27.3-3.8-41.2-4.1-7.9-0.2-15.6-1-23-4-1.1-0.5-2.9-0.6-2.4-2.5 0.4-1.6 1.9-0.9 3-0.7 6.9 1.2 13.8 1 20.6 0.9zm335.5-178.8c0.1 3.1 1.5 5.1 4.7 5.1 3.1 0 4.9-1.7 5.2-4.8 0.2-3.3-1.7-5-4.7-5.1-3.2-0.2-4.9 1.7-5.2 4.8zm-439.4-0.7c-0.1-2.7-1.9-4.2-5-4.1-3.5 0.1-4.4 2.4-4.4 5.3 0 3 1.7 4.7 4.7 4.5 3-0.1 4.8-1.9 4.7-5.7zm-4.9 24c2.3-0.2 5.5 0.6 5.8-3.3 0.2-4-2.8-3.8-5.5-3.8-2.6 0-5.7-0.3-5.7 3.6-0.1 3.7 2.7 3.4 5.4 3.5zm449.1 0.1c2.6-0.2 5.8 0.5 5.9-3.5 0.1-4-3-3.6-5.6-3.6-2.7 0-5.6-0.1-5.6 3.8 0 3.8 3 3.1 5.3 3.3z"/>
		<path class="s1" d="m294.6 29.3c2.5 0.2 4.9 0.3 7.4 0.5q14.4 1.6 28.5 4.2 13.9 3.1 27.5 7.4 13.5 4.7 26.4 10.6 12.7 6.4 24.8 13.8 11.9 8 23 17 10.8 9.5 20.7 20.1 9.6 11.1 18.2 23.2 8.1 12.6 15.3 26.2c1.3 2.7-0.8-2.4 7.3 16.6 6.9 16.9 10.4 26.1 14.3 36.6 12.3 39.1 16.8 66.8 16.2 90.1-4.8 23-13.2 44.4-24.5 67.4-15.6 27-33.2 52.7-52 76.5-19.3 22.1-38.4 40.4-57 54-14.3 7.8-25.5 10.3-34.7 10.3q-19.8 0-39.6-0.1-19.8-0.1-39.7-0.1-19.8-0.1-39.7-0.1-19.8 0-39.6 0c-10.4 0-19.1-2.4-27.7-9.6-10.1-9-22-19.9-35.4-32.8-14.6-14.3-30.1-30.4-45.9-48.6-15.6-19.5-30.1-41.5-42.8-66.5-9.9-26.9-15.7-57.6-16-92.9 2.2-19.9 7.3-42.5 17.2-71 14.3-32.4 19.1-41.6 25.3-50.8 0.8-1.1 1.8-2.4 2.7-3.5q10.6-13.2 22-25.2 11.8-11.3 24.1-21.5 12.6-9.6 25.7-17.9 13.4-7.8 27.1-14.4 13.8-6 28-10.8 14.2-4.2 28.6-7.4 14.5-2.5 29-3.9 14.5-0.8 28.9-0.6 3.3 0.2 6.7 0.4c-0.3 1.4-0.3 2.1-0.3 2.8z"/>
		<path class="s0" d="m275.4 462.9c-29.4 0-58.9 0-88.2 0-11.2 0-15-3.6-15.5-15-0.3-6-3.2-10.1-7.8-13.5-13.9-9.8-27.9-19.4-41.2-29.9-32.2-25.2-60.1-54.2-81.2-89.5-2-3.4-4-6.9-5.1-10.7-1.9-5.7 0.6-9.4 6.5-10.5 3-0.5 6.3-0.6 9.5-0.6 30.6 0 61.3 0.1 91.9 0.3 6.2 0 11.1-1.5 13.8-7.7 22.1-49.8 45.7-98.8 67.2-148.8 5.7-13.4 3.4-24.4-7.3-34-4.6-4.3-8.9-8.8-13.3-13.4-3.7-3.7-5.2-8.2-3-13.2 2-4.8 6.4-4.8 10.7-4.8 38-0.1 75.9-0.2 114-0.4 5 0 10.4-0.1 13 5.7 2.5 5.9-0.3 10.6-4.1 14.9-3.8 4.3-7.8 8.2-11.3 12.6-4.1 4.9-5.7 10.7-4.1 17.1 1.4 5.5 3.3 6.2 7.7 2.5 12.8-10.7 27.1-14.8 43.4-10.8 34.2 8.6 46.8 49.5 24.2 78-5.7 7.2-12.9 12.6-20.6 17.4-12.3 7.8-13.6 11.8-7.3 25.4 7.5 16.4 15.4 32.5 22.6 49 3.2 7.7 8.4 10.6 16.5 10.6 30.5-0.3 60.8-0.3 91.3-0.4 17.1 0 19.7 4.3 11.3 19.3-21 37.9-50.7 68.1-84.6 94.6-11.1 8.7-22.7 16.6-34.3 24.6-7 4.8-11.3 10.7-11.6 19.6-0.2 8-4.5 11.2-13.6 11.4-19.5 0.1-39 0.1-58.6 0.1-10.3 0.1-20.6 0.1-30.9 0.1zm0.2-143.9q0-0.1 0-0.3-2.8 0-5.7 0-97.9 0-195.7 0c-1 0-2.2 0-3.2 0-5.7 0.3-6.4 1.6-4.1 7 2.1 5.1 5.4 9.5 8.8 13.6 25.8 31 56.9 56.2 89.7 79.5 8.5 6.1 18.1 8.7 28.8 8.7 54.8-0.2 109.6-0.1 164.3 0 9.6 0 18-2.5 26-7.8 19.9-13.4 38.3-28.6 55.4-45.2 15-14.6 30.5-28.9 41.4-47.1 1.3-2.1 3.7-4.3 2.4-6.8-1.4-2.8-4.5-1.4-6.9-1.4-65-0.2-130.1 0-195.1 0-1.9-0.2-4-0.2-6.1-0.2zm-0.4-25.3c29.8 0 59.6 0 89.3 0 8.7 0 9.7-1.5 6.3-9.4-8.6-20.3-17.6-40.6-26.3-60.9-12.7-29.5-25.4-58.9-37.8-88.5-3.5-8.4-8.5-12-17.6-11.5-9.6 0.5-19.3 0.5-29 0-8.4-0.4-13.2 2.9-16.6 10.8-16.3 38.2-33.2 76.1-49.7 114.2-5.2 12.2-10.7 24.4-15.8 36.8-2.6 6-1.2 8 5.3 8.5 1.8 0.1 3.7 0.1 5.6 0.1 28.8-0.1 57.6-0.1 86.3-0.1zm106.4-133.5c-0.2-10.7-8.1-20-18.7-22.2-9.1-1.8-20 4.5-23.8 13.7-3.7 9.1 0.8 26.7 8.2 33.2 2 1.6 4.3 2.7 6.8 2.9 13.7 0.2 27.6-13.9 27.5-27.6z"/>
	</g>
</svg>