<svg version="1.2" xmlns="http://www.w3.org/2000/svg" viewBox="0 0 1640 664" width="1640" height="664">
	<title>logo1vec</title>
	<style>
		.s0 { fill: #10292c } 
	</style>
	<g>
		<path class="s0" d="m347.6 63.3c82.2 2.6 158 44.4 210.4 126.6 35 54.8 47.1 115.3 38.3 179.7-7.1 51.9-27.1 98.1-61.2 138-29 33.9-64.2 59.1-105.5 75.8-32.1 13-65.5 19-100 18.5-53.5-0.7-101.9-17.3-145.8-47.5-50.3-34.6-84.5-81.1-103-139.3-10.3-32.4-14.8-65.6-12.4-99.4 5-72.2 34-133.3 87.2-182.6 48.4-45.2 110.7-69.7 192-69.8zm241.9 269.3c-0.1-20.1-2.3-40-7-59.5-9.9-41.3-28.4-78.4-56.4-110.4-49.1-56.3-111.1-86.5-185.9-89.5-41.2-1.7-80.2 7.2-117.3 25.3-48.2 23.5-84.6 59.4-111.6 105.2-16.3 27.7-26.1 57.7-31 89.5-6 39.6-2.5 78.5 9 116.7 5.5 18.4 13 35.9 22.5 52.6 9.2 16.3 19.8 31.8 32.6 45.3 19.8 20.9 42.4 38.5 67.8 52.5 49.1 26.9 101.2 37.3 156.6 29.3 45.1-6.5 85.6-24.1 121.2-52.5 65.5-52.4 97.4-121.2 99.5-204.5z"/>
		<path class="s0" d="m1513.4 266.6c7 4.3 10.3 11 13.1 18 3.1 7.7 6.4 15.4 9.3 23.1 1.8 4.6 1 5.5-4 5.7-8 0.3-7.9 0.2-10.8-7.1-3.2-8-6.1-16.2-9.7-24-4.5-9.9-13.3-14-23.8-12.1-3 0.5-2.1 2.6-2.1 4.2-0.1 11.3-0.3 22.7 0.1 34 0.2 5.2-2.6 5.2-6.2 5.1-3.5-0.1-6.8 0.6-6.8-5.1 0.3-28.2 0.1-56.3 0.1-84.5 0-5.7 1.1-6.9 6.7-6.8 9.7 0.1 19.4-0.9 28.9 0.7 13.5 2.2 21 9.3 22.6 21 1.6 12-3.4 20.6-15.5 26.7-0.5 0.2-1 0.5-1.9 1.1zm-28.1-23.1c0 4.5 0.1 9 0 13.5 0 2.1 0.7 3 2.9 2.9 4.5-0.1 9 0.2 13.5-0.2 10.1-1 15.7-7.1 15.6-16.5-0.1-9.5-5.4-14.6-15.9-15.4-2.2-0.2-4.3-0.4-6.5-0.4-9.6-0.1-9.6-0.1-9.6 9.7 0 2.1 0 4.2 0 6.4z"/>
		<path class="s0" d="m1126.3 313.3c-4.1 1-6.5-1-7.8-5.9-1.5-5.8-3.9-11.3-5.8-17-0.7-2-1.7-2.9-3.9-2.8-11.3 0.1-22.7 0.1-34 0-2.6 0-3.3 1.2-4 3.4-2 6.2-4.1 12.3-6.3 18.4-1.2 3.4-10.1 5.8-12.8 3.3-1.9-1.8-0.4-3.8 0.2-5.5 6.1-17 12.3-34.1 18.4-51.1 4-11.1 8.3-22.1 11.9-33.3 1.6-4.9 4.4-6.4 9-6.5 7.6-0.2 8.7 0.4 11.3 7.4q14.9 41.2 29.7 82.5c2.6 7 2.4 7.2-5.9 7.1zm-34.6-83.3c-5.4 15.5-10.3 29.7-15.3 43.9-0.7 2-1 3.4 2.1 3.4 9-0.1 18-0.1 26.9 0 1.7 0 3-0.1 2.1-2.5-5.2-14.5-10.3-29-15.8-44.8z"/>
		<path class="s0" d="m1368 264.8c0-13.7 0-27.3 0-41 0-5.8 1.2-6.9 7.1-7 13.7 0 27.3 0.1 41-0.1 4.2-0.1 5.1 1.9 5.1 5.4 0.1 3.7-1.1 5.4-5.2 5.2-10.3-0.3-20.7 0.1-31-0.2-3.4-0.1-4.1 1-4.1 4.2q0.3 11.3 0 22.5c-0.1 3.2 1 3.8 4 3.8 8.7-0.2 17.3 0.1 26-0.1 4.1-0.1 4.8 2.2 4.8 5.2 0 3.1-0.5 5.4-4.7 5.3-8.8-0.3-17.7 0-26.5-0.2-2.9-0.1-3.6 0.8-3.6 3.6q0.3 13.5 0 27c-0.1 3.2 1 3.8 4 3.8 10.3-0.2 20.7 0.1 31-0.1 4-0.1 5.9 1.3 5.9 5.3 0 4.2-1.6 5.7-6 5.6-13.7-0.3-27.3-0.1-41-0.1-5.6 0-6.7-1.2-6.7-6.7-0.1-13.7-0.1-27.5-0.1-41.4z"/>
		<path class="s0" d="m704.9 265.1c0-13.8 0-27.6 0-41.5 0-5.6 1-6.7 6.7-6.7 13.8 0 27.6 0.1 41.5-0.1 4.4-0.1 4.9 2.3 5 5.6 0 3.3-1 5.1-4.9 5-10.5-0.3-21 0-31.5-0.2-3.1-0.1-4 0.9-3.9 3.9 0.2 7.5 0.3 15 0 22.5-0.1 3.5 1.3 4.1 4.3 4 8.5-0.2 17 0.1 25.5-0.1 4.4-0.1 4.9 2.2 4.9 5.6 0 3.5-1 5.1-4.9 4.9-8.6-0.3-17.3 0.1-26-0.2-3.1-0.1-3.9 0.9-3.8 3.9 0.2 8.8 0.2 17.7 0 26.5-0.1 3.5 1.2 4.1 4.3 4 10.3-0.2 20.6 0.1 31-0.1 4.3-0.1 5.5 1.7 5.5 5.6 0 4.1-1.6 5.4-5.7 5.3-13.8-0.2-27.6-0.2-41.5 0-4.7 0-6.5-1.8-6.5-6.5 0.1-13.8 0-27.6 0-41.4z"/>
		<path class="s0" d="m999.3 270.5c0 12.7-0.2 25.3 0.1 38 0.1 5.9-3.7 4.7-7 4.8-3.3 0.1-6 0.3-5.9-4.8 0.3-25.3 0-50.6 0.2-75.9 0-4-1.1-5.1-5-4.9-6.5 0.3-13-0.1-19.5 0.2-4.4 0.2-5.5-1.8-5.4-5.6 0.1-3.5 0.9-5.4 5.1-5.4q30.8 0.3 61.5 0c4.5-0.1 5.4 2.1 5.5 5.7 0.1 3.8-1.5 5.6-5.7 5.4-6.5-0.4-13 0.1-19.5-0.2-3.4-0.1-4.6 0.8-4.5 4.4 0.3 12.7 0.1 25.5 0.1 38.3z"/>
		<path class="s0" d="m1179.3 263.7c0-13.8 0.3-27.6-0.1-41.5-0.2-5.7 3.1-5.9 6.8-5.9 3.6 0 6.4 0.3 6.3 5.7-0.4 25-0.1 49.9-0.2 74.9 0 3.8 0.7 5.2 4.8 5 9.1-0.3 18.3 0.1 27.5-0.2 4.4-0.1 4.9 2.2 4.8 5.6-0.1 3.3-0.2 5.8-4.7 5.7-12.8-0.2-25.6-0.1-38.5-0.1-5.4 0-6.7-1.3-6.7-6.9-0.1-14 0-28.2 0-42.3z"/>
		<path class="s0" d="m809.3 263.7c0-13.8 0.3-27.6-0.1-41.4-0.2-5.6 3-5.9 6.8-5.9 3.6 0 6.4 0.3 6.3 5.7-0.4 25-0.1 49.9-0.2 74.9 0 3.8 0.7 5.2 4.9 5 9.1-0.3 18.3 0.1 27.5-0.2 4.4-0.1 4.9 2.2 4.8 5.6-0.1 3.3-0.2 5.8-4.7 5.7-12.8-0.2-25.6-0.1-38.5-0.1-5.3 0-6.7-1.3-6.7-6.9-0.2-14.1-0.1-28.3-0.1-42.4z"/>
		<path class="s0" d="m1273.9 264c0-14.2 0.3-28.3-0.1-42.5-0.2-5.3 3.1-5.1 6.3-5.2 3.4 0 6.9-0.2 6.8 5.4-0.2 25 0 50-0.2 75 0 4 0.8 5.5 5.1 5.3 9-0.4 18 0.1 27-0.2 4.6-0.2 4.9 2.7 4.9 5.7 0 3-0.4 5.7-4.9 5.6-13-0.3-26-0.2-39-0.1-4.2 0-5.9-1.8-5.9-6 0.1-14.3 0-28.6 0-43z"/>
		<path class="s0" d="m1000.5 404.9c3.3-7.7 6.1-14 8.7-20.5 1.1-2.8 2.5-4.5 5.7-3.9 3.5 0.7 2 3.5 2 5.3 0.2 7 0.1 14 0 21 0 1.5 0.6 3.7-1.9 3.6-2.3-0.1-1.8-2.2-1.8-3.7 0-6.5 0-13.1-1.4-20.1-2.6 6.3-5.1 12.6-7.9 18.8-0.8 1.9-0.8 4.9-3.6 5-3.2 0.1-3.1-3.3-4-5.3-2.5-5.8-4.6-11.7-6.9-17.5-0.6 0.1-1.2 0.2-1.8 0.2 0 6 0.1 12-0.1 18 0 1.7 1.2 4.7-2.1 4.4-2.6-0.2-1.5-2.9-1.5-4.4q-0.1-10.5 0-21c0-1.8-0.9-4.2 2.4-4.5 2.6-0.2 4.5 0.3 5.6 3.2 2.7 6.9 5.5 13.5 8.6 21.4z"/>
		<path class="s0" d="m1235.7 402.1q0-9.3 0-18.6c0-1.4-0.2-3 1.9-2.9 2.1 0.1 1.8 1.7 1.8 3.1 0 7.4 0 14.9 0 22.3 0 1.7 0.8 3.9-1.6 4.6-2.6 0.7-4-1-5.2-3.1-3.3-6-6.5-12-9.8-17.9-0.4-0.8-0.5-2-2.5-2.2 0 6.3 0.1 12.6 0 18.9 0 1.6 1 4.2-1.7 4.3-2.9 0.1-1.9-2.5-2-4.1-0.1-7-0.1-14.1 0-21.1 0-1.7-1.1-4.3 2-4.8 2.4-0.4 4.1 0.4 5.3 2.8 3.3 6.5 7 12.8 10.5 19.3 0.5-0.3 0.9-0.5 1.3-0.6z"/>
		<path class="s0" d="m1316.6 395.8q0-3 0-6c0-10.2 0.5-10.6 10.7-9.3 3.2 0.4 5.9 1.7 7 4.8 1.1 3.2 0.9 6.5-2.2 8.6-2.2 1.5-1.9 2.4-0.5 4.4 1.8 2.6 2.8 5.7 4 8.6 0.5 1.1 1.6 2.8-0.5 3.4-1.6 0.5-2.5-0.4-3.1-2-0.9-2.4-2-4.8-2.9-7.2-1.2-2.9-3.5-4.6-6.5-4.2-3.8 0.5-1.4 3.9-2.2 5.8-1 2.5 2.3 7.3-2.1 7.2-3.3 0-1.1-4.6-1.5-7.2-0.5-2-0.2-4.5-0.2-6.9zm6.7-12.4c-4.4-0.6-2.8 3.2-2.9 5.6-0.2 2.5-0.8 5.4 3.5 5 3.7-0.3 7-1.3 6.8-5.7 0-4.1-3.3-4.8-7.4-4.9z"/>
		<path class="s0" d="m920.2 395.3c0-2.4-0.4-4.9 0.1-7.2 0.5-2.6-2.4-7 2.1-7.5 5.1-0.5 11.2-2.1 14.9 3.5 2.2 3.3 1.8 7.1-1.4 9.7-1.9 1.5-2.3 2.2-0.7 4.4 1.9 2.7 3 6.1 4.3 9.2 0.4 1 1.1 2.4-0.6 3-1.3 0.5-2.4-0.1-3-1.3-1.2-2.7-2.2-5.5-3.4-8.3-1.3-2.9-3.7-4.4-6.8-3.7-3.1 0.8-1.1 3.7-1.8 5.6-0.9 2.5 2.1 7.4-2 7.3-3.5-0.1-1.2-4.9-1.7-7.6-0.3-2.2 0-4.7 0-7.1zm5.9-1.3c4.3 0 7.8-0.5 8.4-4.9 0.5-3.8-2.1-5.4-5.4-5.6-2.1-0.1-5.5-1.3-4.9 2.9 0.3 2.6-2.2 6.5 1.9 7.6z"/>
		<path class="s0" d="m1303.5 392.2c0 2.4 0.1 4.8 0 7.2-0.2 7.2-4.2 11.4-11 11.6-6.9 0.2-11.3-3.7-11.6-10.9-0.3-5.4-0.1-10.8-0.1-16.2 0-1.4-0.3-3.1 1.7-3.3 2.6-0.2 2 1.9 2 3.4 0.1 5-0.1 10 0.1 15 0.1 5 2 8.6 7.8 8.6 5 0 7.3-2.7 7.4-8.8 0.1-5.2 0-10.4 0-15.6 0-1.5 0-2.9 2.1-2.7 1.7 0.1 1.7 1.4 1.7 2.6-0.1 3.1-0.1 6.1-0.1 9.1z"/>
		<path class="s0" d="m1370.4 409c0 0.9-0.4 1.5-1.4 1.6-1.6 0.1-2.8-0.5-3-2.2-0.7-5.5-4.2-6-8.9-6-4.5-0.1-7.2 0.8-8 5.5-0.3 1.7-1.3 3.3-3.2 2.4-1.9-0.8-0.6-2.5-0.2-3.7 2.8-7.9 5.7-15.7 8.6-23.6 0.6-1.6 1.4-2.8 3.4-2.7 1.6 0.1 2.7 0.7 3.2 2.2 3.1 8.4 6.1 16.9 9.1 25.3 0.1 0.5 0.3 0.9 0.4 1.2zm-13.1-24.5c-1.6 4.5-2.3 7.6-3.7 10.4-2 4.2 0 4.3 3.4 4.5 4.7 0.3 6.2-0.9 4-5.4-1.2-2.6-2.1-5.4-3.7-9.5z"/>
		<path class="s0" d="m974.1 409.1c0 0.8-0.3 1.5-1.3 1.5-1.6 0.1-2.9-0.5-3.1-2.1-0.7-5.4-4.1-6-8.8-6.1-4.4 0-7.3 0.8-8 5.5-0.3 1.7-1.2 3.3-3.2 2.5-1.9-0.8-0.7-2.5-0.3-3.6 2.8-7.9 5.7-15.7 8.6-23.6 0.6-1.6 1.3-2.8 3.4-2.7 2 0 2.9 1.1 3.4 2.7 2.9 8.1 5.8 16.1 8.7 24.2 0.1 0.5 0.4 1.1 0.6 1.7zm-13.1-24.6c-1.5 4.3-2.3 7.2-3.5 9.8-1.7 3.7-1.2 5 3.3 5.1 4.8 0.1 6-1.1 3.9-5.5-1.3-2.6-2.1-5.3-3.7-9.4z"/>
		<path class="s0" d="m1086.8 402.6c-3.7-0.7-7.1 0.1-7.8 5.5-0.2 1.6-1.5 3.2-3.4 2.4-2-0.8-0.4-2.5 0-3.6 2.7-7.7 5.6-15.4 8.4-23.1 0.6-1.8 1.2-3.2 3.5-3.3 2.4-0.1 3 1.5 3.6 3.2 2.8 7.7 5.7 15.4 8.4 23.1 0.4 1.2 2 3.2-0.7 3.8-2.1 0.5-2.5-1.3-3.1-2.8-2.3-5.3-2.4-5.2-8.9-5.2zm0.5-18.3c-1 2.9-1.6 4.6-2.2 6.3-3.3 9.2-3.3 9.3 6.3 8.4 0.3 0 0.5-0.5 0.9-0.9-1.5-4.1-3.1-8.4-5-13.8z"/>
		<path class="s0" d="m892.1 395.5c0-1.4-0.1-2.8 0-4.2 0.3-3.5-1.7-8.9 1-10.1 3.8-1.8 9-0.6 13.6-0.7 0.8 0 1.6 0.3 1.7 1.3 0.1 1.3-0.8 1.7-1.9 1.7-1.6 0-3.2 0.3-4.8 0-5.4-1-6.3 1.7-6 6.4 0.2 3.1 1.4 3.7 4 3.5 1.8-0.1 3.6 0 5.4 0 1.2 0 1.9 0.6 1.9 1.8 0 1.4-1.1 1.4-2.1 1.4-1 0-2 0.2-3 0-5-0.9-6.2 1-6.3 6-0.2 6.3 3.7 4.5 6.9 4.9 2.1 0.3 6-1.4 6 1.5 0 3.2-3.9 1.6-6 1.7-10.5 0.2-10.5 0.1-10.5-10.2 0.1-1.8 0.1-3.4 0.1-5z"/>
		<path class="s0" d="m1170 395.7c0-2.6-0.4-5.3 0.1-7.8 0.5-2.6-2.5-6.8 3-7.5 8.4-1.1 13.6 1 15.1 6.2 1.4 4.8-0.8 9.3-5.4 11.2-0.4 0.2-0.8 0.4-1.1 0.4-7-0.4-9.4 2.9-8 9.5 0.2 1.2 0 2.6-1.5 2.7-1.9 0.1-2.1-1.4-2.1-2.9-0.1-3.8-0.1-7.8-0.1-11.8zm3.6-6c0.6 2.3-1.6 6.3 3.9 6 4.3-0.3 7-1.9 6.9-6.5-0.1-4.4-3-5.6-6.9-5.8-5.5-0.4-3.4 3.6-3.9 6.3z"/>
		<path class="s0" d="m881.3 404.6c1.2 3.3-0.7 4.2-2.5 5.1-7.8 3.7-16.1-0.3-18.1-8.9-1.5-6.4-0.8-12.5 4-17.3 3.5-3.6 8-4.3 12.8-2.7 1.3 0.4 2.5 1.2 3.6 2 0.8 0.6 1 1.8 0.3 2.7-0.6 0.9-1.4 0.2-2-0.2-5-2.8-9.6-3-13.2 2.2-3.1 4.6-2.9 13.4 0.6 17 4.5 4.8 9.4 3.1 14.5 0.1z"/>
		<path class="s0" d="m1067.7 404.6c-1.3 6.1-5.6 6.2-9.3 6.3-5.3 0.2-9.4-2.3-11.3-7.3-2.5-6.8-2.3-13.5 2.5-19.3 3.6-4.3 8.4-5.1 13.7-3.4 1.3 0.4 2.5 1.2 3.5 2.1 0.5 0.4 0.7 1.6 0.4 2.2-0.6 1.5-1.5 0.5-2.3 0.1-4.8-2.7-9.2-2.8-12.8 1.9-3.4 4.5-3.1 13.7 0.4 17.6 2.9 3.3 6.9 3.4 15.2-0.2z"/>
		<path class="s0" d="m1133.8 394.5c2.2-4.6 4-8.3 5.7-12 0.8-1.7 2.1-2.7 3.8-1.9 2.1 1.1 0 2.5-0.4 3.5-3.7 7.7-8.9 14.9-7.3 24.2 0.2 1.3-0.7 2.4-2.1 2.2-1.2-0.1-1.6-1.2-1.5-2.2 1.5-9.3-3.9-16.4-7.5-24.1-0.5-1-2.4-2.4-0.4-3.5 1.5-0.8 2.9-0.1 3.8 1.8 1.6 3.8 3.5 7.4 5.9 12z"/>
		<path class="s0" d="m1262.4 396.6c0 3.2 0.1 6.4 0 9.6-0.1 1.6 0.9 4.2-1.8 4.3-2.9 0.1-1.9-2.5-1.9-4.1-0.1-5.8-0.3-11.6 0-17.4 0.3-4.4-0.9-6.3-5.6-5.7-1.3 0.2-3.8 1-3.8-1.4 0-2.4 2.5-1.4 3.8-1.4q7.8-0.1 15.6 0c1.2 0 2.5-0.1 2.6 1.6 0.1 1-0.9 1.4-1.7 1.2-9.3-2-7.3 4.6-7.4 9.6 0.2 1.3 0.2 2.5 0.2 3.7z"/>
		<path class="s0" d="m1033.9 396.3q0 6 0 12c0 1.1-0.3 2.1-1.5 2.2-1.5 0.1-2.2-0.9-2.2-2.2 0-8.4 0-16.8 0-25.3 0-1.4 0.4-2.4 1.9-2.5 1.6 0 1.8 1.2 1.8 2.5 0 4.4 0 8.9 0 13.3z"/>
		<path class="s0" d="m1430.7 390.4c3.3 0.2 4.9 2.1 4.9 5.1-0.1 3-1.9 5.1-5.1 4.9-3-0.2-4.9-2.1-4.9-5.2 0.1-3.2 1.9-4.7 5.1-4.8z"/>
		<path class="s0" d="m800.7 400.5c-3.4 0-5.2-1.9-5.3-4.9-0.1-3 1.6-5.2 4.9-5.1 3 0.1 5 1.8 5.1 5 0.1 3.2-1.7 4.9-4.7 5z"/>
		<path class="s0" d="m816.5 395c0.1-2.6 0.2-5.5 3.6-5.4 4 0.2 3.6 3.7 3.6 6.5 0.1 2.4 0 5-3.3 5.1-4.2 0-3.7-3.4-3.9-6.2z"/>
		<path class="s0" d="m1414.5 395.8c0 2.5 0 5.5-3.4 5.6-4.1 0.1-3.8-3.4-3.9-6.2-0.1-2.5-0.1-5.4 3.6-5.3 3.9 0.1 3.5 3.2 3.7 5.9z"/>
		<path class="s0" d="m1203.5 395.9q0 6 0 12c0 1.2 0 2.5-1.6 2.7-2 0.1-2.1-1.3-2.1-2.8q0-12.3 0-24.6c0-1.2 0-2.5 1.7-2.6 2.1-0.2 2.1 1.3 2.1 2.7-0.1 4.2-0.1 8.4-0.1 12.6z"/>
		<path class="s0" d="m968.4 371.5c-4.5 4.6-4.5 4.6-8.4 5.5 2.3-2.1 2.7-6.6 8.4-5.5z"/>
		<path class="s0" d="m335.6 500.1q-35.3 0-70.5 0c-8 0-12.2-3.9-11.9-11.9 0.1-4.7-1.5-7.6-5.3-10.2-19.2-13.2-38.3-26.6-55.1-42.8-16.6-16-31.8-33.2-43.4-53.2q-1.4-2.4-2.7-4.8c-3.3-6-1.3-12.3 7.4-12.1 26.3 0.5 52.7 0 79 0.3 4.8 0 7.3-1.7 9.2-5.8 14.4-31.8 29-63.6 43.5-95.4 3.8-8.3 7.7-16.6 10.9-25.2 3.3-8.9 1.9-16.6-4.9-23.3-4.1-4.1-8.4-8.1-12.3-12.4-2.7-2.9-4.3-6.4-2.4-10.5 1.8-4 5.5-3.8 9-3.8 30.5-0.1 61-0.1 91.5-0.2 3.7 0 7.1 0.4 8.9 4.2 1.9 4 0.5 7.4-2 10.6-3.5 4.4-8.1 7.9-11.2 12.7-2.4 3.9-3.5 7.9-2.3 12.4 1.3 4.7 2.5 5 6.2 1.9 8-6.6 17.1-10.3 27.6-9.7 27 1.7 43.1 29.8 31.4 54.5-4.8 10-12.6 16.9-21.9 22.6-9.2 5.6-10.5 9.6-6 19.4 6.4 13.9 13 27.7 19.3 41.7 2 4.4 4.7 6.4 9.9 6.3 26.2-0.3 52.3-0.1 78.5-0.1 8.5 0 11.2 4 7.3 11.7-11.4 22.4-27.5 41.1-45.4 58.4-16.4 16-35.1 29.1-53.8 42.1-4 2.7-5.7 6-6.1 10.7-0.7 9.6-3.3 11.9-12.8 12-23.3-0.1-46.4-0.2-69.6-0.1q0-0.2 0 0zm0.4-114.5c0-0.1 0-0.1 0-0.2q-67.2 0-134.4 0c-9.3 0-18.6 0-28 0-5.3 0-5.6 0.6-3.7 5.3 2.3 5.9 6.5 10.4 10.5 15.1 18.2 21 39.7 38.3 61.7 55 9.8 7.5 20.6 11.2 33.7 11.1 42.5-0.3 84.9 0.1 127.4-0.2 6.7 0 12.4-1.8 17.8-5.3 21.1-13.8 39.8-30.5 57.4-48.5 7.8-8 15.4-16.2 21.2-25.8 3.6-6 3.2-6.4-3.6-6.4-53.4-0.1-106.7-0.1-160-0.1zm-1.2-20.5c23.8 0 47.7 0 71.5 0 7.8 0 8-0.4 5-7.4-11.9-27.6-23.9-55.2-35.8-82.8q-8-18.6-15.9-37.2c-2.2-5.3-5.6-8.1-11.8-7.7-8.8 0.5-17.7 0.3-26.5 0.1-4.9-0.1-7.9 1.7-9.9 6.4-11 25.8-22.4 51.5-33.6 77.3-6.3 14.5-12.7 28.9-19 43.4-2.8 6.4-1.8 7.9 5 7.9 23.7 0 47.4 0 71 0zm64.1-84.3c7.5 0 16.5-6.4 19.6-14 3.7-8.9 0.3-18.5-8.1-23-7.9-4.3-17.3-1.7-22.6 6.3-5.3 8-1.5 25 6.7 30 1.5 0.7 2.9 0.7 4.4 0.7z"/>
		<path class="s0" d="m210.6 502.1c-4.6-0.5-9.3-1-13.9-1.4-1.5-0.1-3.7-1.7-4.2 0.7-0.5 2 2.1 2.2 3.5 2.8 4.5 1.7 9.2 2.8 14.1 3.2 15.2 1.2 30.7 0.2 45.7 3.8 1.3 0.3 2.6 0.5 3.9 0.9 2 0.6 5.1 0.4 4.8 3.2-0.2 2.4-3.1 2.6-5.2 3-8.2 1.5-16.5 1.8-24.9 2-0.9 0-2.6-1-2.6 1 0 1.1 1.1 1.3 2.2 1.5 20.6 3.6 40.5 9.2 59.2 18.8 6.1 3.1 12.4 5.8 18.5 8.8 1.1 0.5 3 0.6 2.8 2.3-0.2 1.8-2 2-3.5 2.3-1 0.1-2 0.2-3 0.1-20.4-3.1-40.8-6.3-59.9-14.8-8.5-3.7-15.8-9.2-23.1-14.7-2.1-1.6-5.1-4.9-7.2-2.7-2.3 2.4 1.6 4.9 3.2 6.8 4 4.5 6.3 10.2 10.2 14.8 0.8 1 1.2 2.1 0.2 3.1-0.7 0.8-1.8 0.9-2.8 0.7-0.5-0.1-1-0.3-1.4-0.6-11.1-8.9-24.2-15.3-32.2-28-6.3-10.1-14.5-18.7-23.1-26.8-15.2-14.1-28.6-29.7-39.6-47.2-6.4-10.3-10.9-21.7-16.5-32.5-3.4-6.5-6.1-13.3-7.6-20.5-0.3-1.5-1.5-3.7 0.8-4.3 2.1-0.5 2.5 1.8 2.7 3.4 1.6 10.3 8.5 15.7 17.4 19.4 12.3 5.1 22.7 13.1 32.9 21.4 5.4 4.4 11.2 8.3 16.8 12.6 1.7 1.4 4.3 3.1 2.2 5.7-1.8 2.2-4.2 0.6-5.8-0.7-8.9-6.8-19.4-10.1-29.9-13.3-3.7-1.1-7.2-2.7-10.6-4.4-1.1-0.6-2.3-2-3.5-0.5-0.9 1.3 0.4 2.4 1.1 3.5 4.9 7 11.9 11.8 19.5 15.2 14.7 6.7 29.6 12.8 44.5 19.1 1.5 0.7 3.1 1.2 4.6 2 1.4 0.7 3.4 1.5 2.5 3.6-0.8 1.8-2.7 2-4.4 1.4-13.8-4.5-28.6-5-41.9-11.3-1.2-0.6-2.9-2.3-3.9-0.5-1 1.8 1 2.9 2.2 3.9 5.2 4 10.9 7.1 17.1 9.1 18.5 6 37 12 55.6 18.1 0.3 0.1 0.7 0.1 0.9 0.3 1.5 0.9 4.4 0.7 4.2 2.8-0.2 2.5-3 2.2-4.9 2.2-6 0.1-12 0-18 0 0.3 0.1 0.3 0.4 0.3 0.7zm-84.1-85.6c-0.4-0.4-0.8-1.1-1.4-0.5-0.6 0.7 0.1 0.9 0.6 1.2 5.2 8.1 12.8 12 22.2 12.7-5.7-6.7-13.7-9.9-21.4-13.4zm111 111.5c15.4 12.3 33.7 16.2 52.6 18.8-16.3-9.7-34-15.8-52.6-18.8zm-69.8-47.2c5.1 10.2 32.8 19.4 42.3 14.2-13.9-4.7-27.9-9.3-42.3-14.2zm49.5 53.9c-0.4-6.1-15-21-21.5-22 5.6 9 12 16.8 21.5 22zm28.4-20.1c-9.6-2.5-19.5-2.7-29.5-2.2 9.6 4 19.4 4.2 29.5 2.2z"/>
		<path class="s0" d="m533.8 235.2c-5.4-11.8-14.1-18.3-24-22.9-14.6-6.8-29.7-12.7-44.5-19.2-2.6-1.1-7.4-1.6-6.4-4.9 1.2-4.1 5.4-1.2 8.2-0.6 7.2 1.4 14.3 3 21.5 4.7 8.1 1.9 15.9 4.7 23.3 9.4-1.3-4-5.6-8.1-11.4-11.5-8.7-5.1-18.5-7.4-28-10.7-13.2-4.5-26.6-8.5-39.9-12.9-1.6-0.5-4.4-0.7-4-2.9 0.4-2.4 3.1-2 5.1-2 11.1 0 22.3-1.5 33.4 1 1 0.2 2.2 0.4 2.6-0.7 0.5-1.5-0.9-2-1.9-2.4-5-2.1-10.1-3.4-15.4-3.8-15.6-1.3-31.4-0.2-46.7-4-2.9-0.7-7.9-0.1-7.9-3.6 0.1-3.8 5.1-3.2 8.2-3.8 8-1.3 16.2-1.3 25.7-1.6-4.7-2.3-8.4-3.4-12.1-4.1-22.3-3.9-42.7-12.8-62.6-22.9-2.4-1.2-4.9-2.2-7.3-3.3-0.9-0.4-2.2-0.6-2-1.9 0.1-1.3 1.3-1.9 2.5-2.1 1.1-0.2 2.3-0.5 3.5-0.3 21.9 3.3 43.9 6.6 64.1 16.5 7.4 3.6 13.8 8.6 20.3 13.6 1.9 1.4 4.5 4.2 6.4 2.3 2.3-2.2-1.1-4.5-2.5-6.1-4.3-4.7-6.8-10.7-10.9-15.6-0.8-1-1.3-2.1-0.3-3.1 0.9-0.9 2.1-1 3.2-0.6 0.5 0.2 0.9 0.4 1.3 0.7 11.5 9.1 24.6 16.3 33 29.4 9.5 15 23.3 26.4 35.6 39 11.8 12.1 21.7 25.6 29.7 40.4 5.4 9.9 10.2 20.2 15.2 30.3 2.6 5.3 4 10.9 5.3 16.6 0.2 1.1 0.7 2.6-0.8 3-1.7 0.5-2.5-1.1-2.6-2.3-1.6-11.9-10-17.3-20-21.4-14.3-5.8-25.2-16.7-37.3-25.7-3.5-2.6-7.1-5-10.5-7.7-1.6-1.2-3.2-3-1.6-5.1 1.4-1.9 3.6-0.8 4.9 0.3 9.8 7.8 21.6 10.9 33.2 14.5 4.6 1.6 9 4.3 14.4 8zm1.7 11.3c0.4 0.4 0.8 1.1 1.4 0.5 0.6-0.7-0.1-0.9-0.6-1.2-4.6-7.8-15.9-14-22.6-12.1 6.7 5.6 13.4 10.5 21.8 12.8zm-109.9-110.5c-8.8-9.7-45.7-22.4-54.3-19 17 8.8 34.5 15 54.3 19zm26.3 32c14 4.6 27.9 9.3 42.5 14.1-4.9-9.2-31.7-19.3-42.5-14.1zm-7.6-38.8c5.2 9.4 12.7 16.5 22.1 21.8-6.4-8.2-11.3-17.9-22.1-21.8zm1.5 21.3c-9.6-3.8-19.5-4.3-29.6-2.1 9.8 2.4 19.7 2.6 29.6 2.1z"/>
		<path class="s0" d="m552.5 322.9c0-3.5 1.8-5.4 4.8-5.5 3-0.1 5.2 1.6 5.2 4.8 0 3-1.7 5-4.9 5.2-3.2 0.1-4.9-1.6-5.1-4.5z"/>
		<path class="s0" d="m102.7 323.4c-0.2-4.2 1.6-6 4.6-6 2.7 0 4.8 1.6 5 4.5 0.1 3-1.5 5.2-4.6 5.4-3.1 0.3-4.8-1.6-5-3.9z"/>
		<path class="s0" d="m107.3 338.4c2.7 0.2 5.9-0.1 5.9 3.6 0 3.7-3.2 3.6-5.9 3.6-2.5 0-5.5 0.2-5.6-3.3-0.2-3.7 3-3.7 5.6-3.9z"/>
		<path class="s0" d="m557.4 345.8c-2.6-0.2-5.5 0.2-5.6-3.5 0-3.8 3-3.7 5.7-3.8 2.7-0.1 5.9-0.1 5.8 3.7 0 3.7-3.4 3.3-5.9 3.6z"/>
	</g>
</svg>