<?xml version="1.0" encoding="utf-8"?>
<!-- Generator: Adobe Illustrator 18.0.0, SVG Export Plug-In . SVG Version: 6.00 Build 0)  -->
<!DOCTYPE svg PUBLIC "-//W3C//DTD SVG 1.1//EN" "http://www.w3.org/Graphics/SVG/1.1/DTD/svg11.dtd">
<svg version="1.1" id="logo1_xA0_Imagen_1_" xmlns="http://www.w3.org/2000/svg" xmlns:xlink="http://www.w3.org/1999/xlink"
	 x="0px" y="0px" viewBox="0 0 1640 664" enable-background="new 0 0 1640 664" xml:space="preserve">
<g>
	<path fill="#FDF1E3" d="M820,664c-271.8,0-543.7,0-815.5,0.1c-3.7,0-4.6-0.8-4.6-4.6C0,441.2,0,222.8-0.1,4.5
		c0-3.7,0.8-4.6,4.6-4.6c543.7,0.1,1087.3,0.1,1631,0c3.7,0,4.6,0.8,4.6,4.6c-0.1,218.3-0.1,436.7,0,655c0,3.7-0.8,4.6-4.6,4.6
		C1363.7,664,1091.8,664,820,664z M347.6,63.3c-81.2,0.1-143.6,24.7-192.1,69.7c-53.2,49.4-82.2,110.4-87.2,182.6
		c-2.3,33.8,2.1,67,12.4,99.4c18.5,58.2,52.6,104.7,103,139.3c43.9,30.2,92.3,46.8,145.8,47.5c34.5,0.5,67.9-5.6,100-18.5
		c41.4-16.7,76.6-41.9,105.5-75.8c34.1-39.9,54.1-86.1,61.2-138c8.8-64.5-3.3-124.9-38.3-179.7C505.6,107.6,429.7,65.9,347.6,63.3z
		 M1513.4,266.6c0.9-0.6,1.4-1,1.9-1.2c12.1-6.1,17.1-14.7,15.5-26.7c-1.6-11.7-9-18.8-22.6-21c-9.6-1.6-19.3-0.6-28.9-0.7
		c-5.6-0.1-6.7,1.1-6.7,6.8c0,28.2,0.1,56.3-0.1,84.5c-0.1,5.7,3.3,5,6.8,5.1c3.6,0.1,6.4,0.1,6.2-5.1c-0.4-11.3-0.2-22.7-0.1-34
		c0-1.6-0.9-3.6,2.1-4.2c10.5-1.8,19.3,2.3,23.8,12.1c3.6,7.8,6.6,16,9.7,24c2.9,7.4,2.9,7.4,10.8,7.1c5-0.2,5.8-1,4-5.7
		c-3-7.8-6.2-15.4-9.3-23.1C1523.7,277.6,1520.4,270.9,1513.4,266.6z M1126.3,313.3c8.3,0,8.4-0.2,5.9-7.2
		c-9.9-27.5-19.8-55-29.7-82.5c-2.5-7-3.7-7.7-11.3-7.4c-4.6,0.1-7.4,1.7-9,6.5c-3.6,11.2-7.9,22.2-11.9,33.3
		c-6.1,17-12.3,34.1-18.4,51.1c-0.6,1.8-2.1,3.8-0.2,5.5c2.7,2.4,11.6,0.1,12.8-3.3c2.2-6.1,4.3-12.2,6.3-18.4
		c0.7-2.2,1.4-3.4,4-3.4c11.3,0.1,22.7,0.1,34,0c2.2,0,3.3,0.8,3.9,2.8c1.9,5.7,4.3,11.2,5.8,17
		C1119.8,312.3,1122.3,314.3,1126.3,313.3z M1368,264.8c0,13.8,0,27.7,0,41.5c0,5.5,1.2,6.7,6.7,6.7c13.7,0,27.3-0.2,41,0.1
		c4.4,0.1,6.1-1.4,6-5.6c0-4-1.8-5.4-5.9-5.3c-10.3,0.2-20.7,0-31,0.1c-3,0-4-0.6-4-3.8c0.2-9,0.2-18,0-27c-0.1-2.8,0.7-3.7,3.6-3.6
		c8.8,0.2,17.7-0.1,26.5,0.2c4.2,0.1,4.7-2.2,4.7-5.3c0-3.1-0.7-5.4-4.8-5.2c-8.7,0.3-17.3,0-26,0.1c-2.9,0.1-4.1-0.5-4-3.8
		c0.3-7.5,0.2-15,0-22.5c-0.1-3.2,0.7-4.3,4.1-4.2c10.3,0.2,20.7-0.1,31,0.2c4.1,0.1,5.3-1.5,5.2-5.2c-0.1-3.5-0.9-5.5-5.1-5.4
		c-13.7,0.2-27.3,0.1-41,0.1c-5.9,0-7,1.2-7.1,7C1368,237.5,1368,251.2,1368,264.8z M704.9,265.1c0,13.8,0.1,27.6-0.1,41.5
		c-0.1,4.7,1.8,6.6,6.5,6.5c13.8-0.1,27.6-0.2,41.5,0c4.1,0.1,5.7-1.2,5.7-5.3c0-3.9-1.3-5.7-5.5-5.6c-10.3,0.2-20.6,0-31,0.1
		c-3.1,0-4.4-0.6-4.3-4c0.3-8.8,0.2-17.6,0-26.5c-0.1-3,0.7-4,3.8-3.9c8.7,0.2,17.3-0.1,26,0.2c3.9,0.1,5-1.5,4.9-4.9
		c0-3.4-0.6-5.7-4.9-5.6c-8.5,0.3-17,0-25.5,0.1c-3.1,0.1-4.5-0.5-4.3-4c0.3-7.5,0.2-15,0-22.5c-0.1-3,0.8-4,3.9-3.9
		c10.5,0.2,21-0.1,31.5,0.2c3.9,0.1,5-1.7,4.9-5c0-3.3-0.6-5.7-5-5.6c-13.8,0.2-27.6,0.1-41.5,0.1c-5.7,0-6.7,1.1-6.7,6.7
		C704.9,237.4,704.9,251.2,704.9,265.1z M999.3,270.5c0-12.8,0.1-25.7-0.1-38.5c-0.1-3.6,1.1-4.5,4.5-4.4c6.5,0.2,13-0.2,19.5,0.2
		c4.2,0.2,5.8-1.6,5.7-5.4c-0.1-3.6-1-5.7-5.5-5.7c-20.5,0.2-41,0.2-61.5,0c-4.2,0-5,1.8-5.1,5.4c-0.1,3.9,1,5.9,5.4,5.6
		c6.5-0.3,13,0.1,19.5-0.2c3.9-0.2,5,1,5,4.9c-0.2,25.3,0.1,50.6-0.2,75.9c-0.1,5.1,2.7,4.9,5.9,4.8c3.3-0.1,7.1,1,7-4.8
		C999.1,295.8,999.3,283.2,999.3,270.5z M1179.3,263.7c0,14.2-0.1,28.3,0,42.5c0,5.6,1.3,6.8,6.7,6.9c12.8,0,25.6-0.1,38.5,0.1
		c4.5,0.1,4.7-2.4,4.7-5.7c0.1-3.5-0.4-5.7-4.8-5.6c-9.2,0.2-18.3-0.2-27.5,0.2c-4.1,0.2-4.9-1.3-4.8-5c0.2-25-0.1-49.9,0.2-74.9
		c0.1-5.4-2.8-5.7-6.3-5.7c-3.7,0-7,0.2-6.8,5.9C1179.6,236,1179.3,249.9,1179.3,263.7z M809.3,263.7c0,14.2,0,28.3,0,42.5
		c0,5.6,1.4,6.9,6.7,6.9c12.8,0,25.6-0.1,38.5,0.1c4.5,0.1,4.7-2.4,4.7-5.7c0.1-3.4-0.4-5.7-4.8-5.6c-9.2,0.2-18.3-0.2-27.5,0.2
		c-4.1,0.2-4.9-1.3-4.9-5c0.2-25-0.1-49.9,0.2-74.9c0.1-5.4-2.8-5.7-6.3-5.7c-3.8,0-7,0.3-6.8,5.9
		C809.5,236,809.3,249.9,809.3,263.7z M1273.9,264c0,14.3,0.1,28.7-0.1,43c0,4.3,1.7,6.1,5.9,6c13-0.1,26-0.2,39,0.1
		c4.6,0.1,4.9-2.6,4.9-5.6c0-3-0.2-5.9-4.9-5.7c-9,0.3-18-0.1-27,0.2c-4.3,0.2-5.1-1.2-5.1-5.3c0.2-25,0-50,0.2-75
		c0.1-5.5-3.4-5.4-6.8-5.4c-3.2,0-6.4-0.2-6.3,5.2C1274.1,235.7,1273.9,249.9,1273.9,264z M1000.5,404.9c-3.2-7.8-6-14.5-8.5-21.2
		c-1.1-2.9-2.9-3.4-5.6-3.2c-3.2,0.3-2.3,2.7-2.4,4.5c-0.1,7-0.1,14,0,21c0,1.6-1.1,4.2,1.5,4.4c3.3,0.3,2.1-2.8,2.1-4.4
		c0.1-6,0.1-12,0.1-18c0.6-0.1,1.2-0.2,1.8-0.2c2.3,5.8,4.5,11.7,6.9,17.5c0.9,2,0.8,5.4,4,5.3c2.8-0.1,2.7-3.1,3.6-5
		c2.7-6.2,5.3-12.5,7.9-18.8c1.4,7,1.3,13.5,1.4,20.1c0,1.5-0.4,3.7,1.8,3.7c2.4,0.1,1.8-2.2,1.9-3.6c0.1-7,0.1-14,0-21
		c0-1.9,1.5-4.7-2-5.3c-3.2-0.6-4.6,1.1-5.7,3.9C1006.7,390.9,1003.8,397.2,1000.5,404.9z M1235.7,402.1c-0.4,0.2-0.9,0.3-1.3,0.5
		c-3.5-6.4-7.1-12.8-10.5-19.3c-1.2-2.4-2.9-3.2-5.3-2.8c-3.2,0.5-2,3-2,4.8c-0.1,7-0.1,14,0,21.1c0,1.6-0.9,4.2,2,4.1
		c2.7-0.1,1.7-2.7,1.7-4.3c0.1-6.3,0-12.6,0-18.9c2,0.2,2.1,1.4,2.5,2.2c3.3,6,6.5,11.9,9.8,17.9c1.1,2.1,2.5,3.8,5.2,3.1
		c2.4-0.7,1.6-2.9,1.6-4.6c0.1-7.4,0-14.9,0-22.3c0-1.4,0.3-3-1.8-3.1c-2.1-0.1-1.9,1.6-1.9,2.9
		C1235.7,389.7,1235.7,395.9,1235.7,402.1z M1316.6,395.8c0,2.4-0.3,4.9,0.1,7.2c0.4,2.5-1.7,7.1,1.5,7.2c4.4,0,1.2-4.8,2.1-7.2
		c0.8-2-1.6-5.3,2.2-5.8c3.1-0.4,5.3,1.3,6.5,4.2c1,2.4,2.1,4.8,2.9,7.2c0.6,1.6,1.6,2.5,3.1,2c2.2-0.7,1-2.3,0.5-3.4
		c-1.2-2.9-2.3-6-4-8.6c-1.4-2-1.7-2.9,0.5-4.4c3.1-2.1,3.3-5.4,2.2-8.6c-1.1-3.1-3.8-4.4-7-4.8c-10.3-1.3-10.7-1-10.7,9.3
		C1316.6,391.8,1316.6,393.8,1316.6,395.8z M920.2,395.3c0,2.4-0.3,4.8,0.1,7.2c0.4,2.7-1.8,7.5,1.7,7.6c4.1,0.1,1.1-4.8,2-7.3
		c0.6-1.9-1.4-4.8,1.8-5.6c3-0.7,5.5,0.7,6.8,3.7c1.2,2.7,2.2,5.5,3.4,8.3c0.5,1.2,1.7,1.8,3,1.3c1.7-0.6,1-2,0.6-3
		c-1.3-3.1-2.4-6.4-4.3-9.2c-1.6-2.2-1.2-2.9,0.7-4.4c3.3-2.6,3.6-6.3,1.4-9.7c-3.7-5.6-9.8-4.1-14.9-3.5c-4.5,0.5-1.6,4.9-2.1,7.5
		C919.9,390.5,920.2,392.9,920.2,395.3z M1303.5,392.2c0-3,0-6,0-9c0-1.2,0.1-2.5-1.7-2.6c-2.1-0.2-2.1,1.2-2.1,2.7
		c0,5.2,0.1,10.4,0,15.6c-0.1,6-2.4,8.8-7.4,8.8c-5.7,0-7.6-3.6-7.8-8.6c-0.1-5,0-10-0.1-15c0-1.5,0.6-3.6-2-3.4
		c-2,0.1-1.7,1.9-1.7,3.3c0,5.4-0.2,10.8,0.1,16.2c0.4,7.2,4.7,11.1,11.6,10.9c6.9-0.2,10.8-4.4,11-11.6
		C1303.6,397,1303.5,394.6,1303.5,392.2z M1370.4,409c-0.2-0.4-0.3-0.7-0.5-1.1c-3-8.4-6.1-16.9-9.1-25.3c-0.5-1.5-1.5-2.1-3.2-2.2
		c-2-0.1-2.8,1.1-3.4,2.7c-2.9,7.9-5.8,15.7-8.6,23.6c-0.4,1.1-1.6,2.9,0.2,3.7c2,0.8,3-0.7,3.2-2.4c0.8-4.7,3.5-5.6,8-5.5
		c4.7,0.1,8.2,0.6,8.9,6c0.2,1.6,1.4,2.3,3,2.2C1370.1,410.5,1370.4,409.9,1370.4,409z M974.1,409.1c-0.2-0.6-0.5-1.2-0.7-1.7
		c-2.9-8.1-5.8-16.1-8.7-24.2c-0.6-1.6-1.4-2.7-3.4-2.7c-2,0-2.8,1.1-3.4,2.7c-2.9,7.9-5.8,15.7-8.6,23.6c-0.4,1.1-1.6,2.9,0.3,3.6
		c2,0.8,2.9-0.8,3.2-2.5c0.8-4.7,3.6-5.6,8-5.5c4.7,0,8.1,0.6,8.8,6.1c0.2,1.6,1.4,2.3,3.1,2.1C973.8,410.5,974.1,409.9,974.1,409.1
		z M1086.8,402.6c6.6,0,6.6,0,8.9,5.2c0.7,1.5,1.1,3.3,3.1,2.8c2.7-0.7,1.1-2.6,0.7-3.8c-2.7-7.7-5.5-15.4-8.4-23.1
		c-0.6-1.7-1.2-3.3-3.6-3.2c-2.3,0.1-2.9,1.5-3.5,3.3c-2.7,7.7-5.6,15.4-8.4,23.1c-0.4,1.1-1.9,2.7,0,3.6c1.9,0.8,3.2-0.7,3.4-2.4
		C1079.7,402.7,1083,401.8,1086.8,402.6z M892.1,395.5c0,1.6,0,3.2,0,4.8c0,10.3,0,10.4,10.5,10.2c2.1,0,6,1.5,6-1.7
		c0-2.9-3.9-1.2-6-1.5c-3.2-0.4-7.1,1.4-6.9-4.9c0.1-5,1.4-6.9,6.3-6c1,0.2,2,0,3,0c1,0,2.1,0,2.1-1.4c0-1.2-0.7-1.8-1.9-1.8
		c-1.8,0-3.6-0.2-5.4,0c-2.6,0.2-3.8-0.4-4-3.5c-0.3-4.7,0.7-7.3,6-6.4c1.6,0.3,3.2,0,4.8,0c1.1,0,2-0.4,1.9-1.7
		c-0.1-0.9-0.9-1.3-1.7-1.3c-4.6,0.1-9.7-1-13.6,0.7c-2.7,1.3-0.7,6.6-1,10.1C892,392.7,892.1,394.1,892.1,395.5z M1170,395.7
		c0,4,0,8,0,12c0,1.5,0.2,3,2.1,2.9c1.5-0.1,1.8-1.6,1.5-2.7c-1.4-6.6,1-10,8-9.5c0.4,0,0.8-0.2,1.1-0.4c4.6-1.9,6.8-6.5,5.4-11.2
		c-1.5-5.2-6.7-7.3-15.1-6.2c-5.4,0.7-2.5,4.9-3,7.5C1169.6,390.4,1170,393.1,1170,395.7z M881.3,404.6c-5.1,3-10,4.7-14.5,0
		c-3.5-3.7-3.7-12.4-0.6-17c3.6-5.2,8.2-5,13.2-2.2c0.6,0.4,1.4,1.1,2,0.2c0.7-0.9,0.5-2.1-0.3-2.7c-1.1-0.8-2.3-1.6-3.6-2
		c-4.8-1.6-9.3-0.9-12.8,2.7c-4.8,4.9-5.5,10.9-4,17.3c2,8.6,10.4,12.6,18.1,8.9C880.6,408.8,882.5,407.9,881.3,404.6z
		 M1067.7,404.6c-8.2,3.6-12.2,3.5-15.3,0.1c-3.5-3.9-3.8-13.1-0.4-17.6c3.6-4.7,8-4.6,12.8-1.9c0.8,0.4,1.8,1.4,2.3-0.1
		c0.2-0.6,0-1.8-0.4-2.2c-1-0.9-2.2-1.7-3.5-2.1c-5.2-1.7-10.1-0.9-13.7,3.4c-4.8,5.8-5,12.5-2.5,19.3c1.9,5,6,7.6,11.3,7.3
		C1062.1,410.7,1066.4,410.6,1067.7,404.6z M1133.8,394.5c-2.3-4.6-4.3-8.3-5.9-12.1c-0.8-1.9-2.3-2.6-3.8-1.8c-2,1-0.1,2.4,0.4,3.5
		c3.6,7.7,9,14.8,7.5,24.1c-0.2,1,0.3,2.1,1.5,2.2c1.5,0.2,2.4-0.9,2.1-2.2c-1.5-9.3,3.7-16.5,7.3-24.2c0.5-1,2.5-2.4,0.4-3.5
		c-1.6-0.9-3,0.1-3.8,1.9C1137.8,386.3,1136,390,1133.8,394.5z M1262.4,396.6c0-1.2,0-2.4,0-3.6c0.1-5-1.9-11.6,7.4-9.6
		c0.7,0.2,1.7-0.2,1.7-1.2c-0.1-1.7-1.4-1.6-2.6-1.6c-5.2,0-10.4-0.1-15.6,0c-1.4,0-3.8-1-3.8,1.4c0,2.4,2.5,1.6,3.8,1.4
		c4.6-0.7,5.9,1.2,5.6,5.7c-0.4,5.8-0.2,11.6,0,17.4c0,1.5-1,4.2,1.9,4.1c2.7-0.1,1.7-2.7,1.8-4.3
		C1262.5,403,1262.4,399.8,1262.4,396.6z M1033.9,396.3c0-4.4,0-8.8,0-13.2c0-1.3-0.2-2.5-1.8-2.5c-1.5,0-1.9,1.1-1.9,2.5
		c0,8.4,0,16.8,0,25.3c0,1.4,0.7,2.4,2.2,2.2c1.2-0.1,1.5-1.2,1.5-2.2C1033.9,404.3,1033.9,400.3,1033.9,396.3z M1430.7,390.4
		c-3.2,0-5.1,1.6-5.1,4.8c0,3.2,1.9,5,4.9,5.2c3.2,0.2,5-1.9,5.1-4.9C1435.6,392.6,1434,390.6,1430.7,390.4z M800.7,400.5
		c3-0.1,4.8-1.9,4.7-5c-0.1-3.2-2.1-4.9-5.1-5c-3.2-0.1-4.9,2.1-4.9,5.1C795.5,398.7,797.3,400.5,800.7,400.5z M816.5,395
		c0.2,2.8-0.3,6.2,3.9,6.2c3.3,0,3.4-2.7,3.3-5.1c-0.1-2.8,0.3-6.3-3.6-6.5C816.7,389.5,816.6,392.4,816.5,395z M1414.5,395.8
		c-0.2-2.7,0.2-5.8-3.7-5.9c-3.6-0.1-3.6,2.8-3.6,5.3c0.1,2.8-0.2,6.3,3.9,6.2C1414.5,401.3,1414.5,398.3,1414.5,395.8z
		 M1203.5,395.9c0-4.2,0-8.4,0-12.6c0-1.5,0-2.9-2.1-2.7c-1.7,0.1-1.7,1.4-1.7,2.6c0,8.2,0,16.4,0,24.6c0,1.5,0.1,3,2.1,2.8
		c1.6-0.1,1.6-1.5,1.6-2.7C1203.5,403.8,1203.5,399.9,1203.5,395.9z M968.4,371.5c-5.8-1.2-6.1,3.4-8.4,5.5
		C963.9,376.1,963.9,376.1,968.4,371.5z"/>
	<path fill="#10292C" d="M347.6,63.3c82.2,2.6,158,44.4,210.4,126.6c35,54.8,47.1,115.3,38.3,179.7c-7.1,51.9-27.1,98.1-61.2,138
		c-29,33.9-64.2,59.1-105.5,75.8c-32.1,13-65.5,19-100,18.5c-53.5-0.7-101.9-17.3-145.8-47.5c-50.3-34.6-84.5-81.1-103-139.3
		c-10.3-32.4-14.8-65.6-12.4-99.4c5-72.2,34-133.3,87.2-182.6C204,87.9,266.3,63.4,347.6,63.3z M589.5,332.6
		c-0.1-20.1-2.3-40-7-59.5c-9.9-41.3-28.4-78.4-56.4-110.4C477,106.4,415,76.2,340.2,73.2C299,71.5,260,80.4,222.9,98.5
		c-48.2,23.5-84.6,59.4-111.6,105.2c-16.3,27.7-26.1,57.7-31,89.5c-6,39.6-2.5,78.5,9,116.7c5.5,18.4,13,35.9,22.5,52.6
		c9.2,16.3,19.8,31.8,32.6,45.3c19.8,20.9,42.4,38.5,67.8,52.5c49.1,26.9,101.2,37.3,156.6,29.3c45.1-6.5,85.6-24.1,121.2-52.5
		C555.5,484.7,587.4,415.9,589.5,332.6z"/>
	<path fill="#10292C" d="M1513.4,266.6c7,4.3,10.3,11,13.1,18c3.1,7.7,6.4,15.4,9.3,23.1c1.8,4.6,1,5.5-4,5.7
		c-8,0.3-7.9,0.2-10.8-7.1c-3.2-8-6.1-16.2-9.7-24c-4.5-9.9-13.3-14-23.8-12.1c-3,0.5-2.1,2.6-2.1,4.2c-0.1,11.3-0.3,22.7,0.1,34
		c0.2,5.2-2.6,5.2-6.2,5.1c-3.5-0.1-6.8,0.6-6.8-5.1c0.3-28.2,0.1-56.3,0.1-84.5c0-5.7,1.1-6.9,6.7-6.8c9.7,0.1,19.4-0.9,28.9,0.7
		c13.5,2.2,21,9.3,22.6,21c1.6,12-3.4,20.6-15.5,26.7C1514.8,265.7,1514.3,266,1513.4,266.6z M1485.3,243.5c0,4.5,0.1,9,0,13.5
		c0,2.1,0.7,3,2.9,2.9c4.5-0.1,9,0.2,13.5-0.2c10.1-1,15.7-7.1,15.6-16.5c-0.1-9.5-5.4-14.6-15.9-15.4c-2.2-0.2-4.3-0.4-6.5-0.4
		c-9.6-0.1-9.6-0.1-9.6,9.7C1485.3,239.2,1485.3,241.3,1485.3,243.5z"/>
	<path fill="#10292C" d="M1126.3,313.3c-4.1,1-6.5-1-7.8-5.9c-1.5-5.8-3.9-11.3-5.8-17c-0.7-2-1.7-2.9-3.9-2.8
		c-11.3,0.1-22.7,0.1-34,0c-2.6,0-3.3,1.2-4,3.4c-2,6.2-4.1,12.3-6.3,18.4c-1.2,3.4-10.1,5.8-12.8,3.3c-1.9-1.8-0.4-3.8,0.2-5.5
		c6.1-17,12.3-34.1,18.4-51.1c4-11.1,8.3-22.1,11.9-33.3c1.6-4.9,4.4-6.4,9-6.5c7.6-0.2,8.7,0.4,11.3,7.4
		c9.9,27.5,19.8,55,29.7,82.5C1134.8,313.2,1134.6,313.4,1126.3,313.3z M1091.7,230c-5.4,15.5-10.3,29.7-15.3,43.9
		c-0.7,2-1,3.4,2.1,3.4c9-0.1,18-0.1,26.9,0c1.7,0,3-0.1,2.1-2.5C1102.3,260.3,1097.2,245.8,1091.7,230z"/>
	<path fill="#10292C" d="M1368,264.8c0-13.7,0-27.3,0-41c0-5.8,1.2-6.9,7.1-7c13.7,0,27.3,0.1,41-0.1c4.2-0.1,5.1,1.9,5.1,5.4
		c0.1,3.7-1.1,5.4-5.2,5.2c-10.3-0.3-20.7,0.1-31-0.2c-3.4-0.1-4.1,1-4.1,4.2c0.2,7.5,0.2,15,0,22.5c-0.1,3.2,1,3.8,4,3.8
		c8.7-0.2,17.3,0.1,26-0.1c4.1-0.1,4.8,2.2,4.8,5.2c0,3.1-0.5,5.4-4.7,5.3c-8.8-0.3-17.7,0-26.5-0.2c-2.9-0.1-3.6,0.8-3.6,3.6
		c0.2,9,0.2,18,0,27c-0.1,3.2,1,3.8,4,3.8c10.3-0.2,20.7,0.1,31-0.1c4-0.1,5.9,1.3,5.9,5.3c0,4.2-1.6,5.7-6,5.6
		c-13.7-0.3-27.3-0.1-41-0.1c-5.6,0-6.7-1.2-6.7-6.7C1368,292.5,1368,278.7,1368,264.8z"/>
	<path fill="#10292C" d="M704.9,265.1c0-13.8,0-27.6,0-41.5c0-5.6,1-6.7,6.7-6.7c13.8,0,27.6,0.1,41.5-0.1c4.4-0.1,4.9,2.3,5,5.6
		c0,3.3-1,5.1-4.9,5c-10.5-0.3-21,0-31.5-0.2c-3.1-0.1-4,0.9-3.9,3.9c0.2,7.5,0.3,15,0,22.5c-0.1,3.5,1.3,4.1,4.3,4
		c8.5-0.2,17,0.1,25.5-0.1c4.4-0.1,4.9,2.2,4.9,5.6c0,3.5-1,5.1-4.9,4.9c-8.6-0.3-17.3,0.1-26-0.2c-3.1-0.1-3.9,0.9-3.8,3.9
		c0.2,8.8,0.2,17.7,0,26.5c-0.1,3.5,1.2,4.1,4.3,4c10.3-0.2,20.6,0.1,31-0.1c4.3-0.1,5.5,1.7,5.5,5.6c0,4.1-1.6,5.4-5.7,5.3
		c-13.8-0.2-27.6-0.2-41.5,0c-4.7,0-6.5-1.8-6.5-6.5C705,292.7,704.9,278.9,704.9,265.1z"/>
	<path fill="#10292C" d="M999.3,270.5c0,12.7-0.2,25.3,0.1,38c0.1,5.9-3.7,4.7-7,4.8c-3.3,0.1-6,0.3-5.9-4.8
		c0.3-25.3,0-50.6,0.2-75.9c0-4-1.1-5.1-5-4.9c-6.5,0.3-13-0.1-19.5,0.2c-4.4,0.2-5.5-1.8-5.4-5.6c0.1-3.5,0.9-5.4,5.1-5.4
		c20.5,0.2,41,0.2,61.5,0c4.5-0.1,5.4,2.1,5.5,5.7c0.1,3.8-1.5,5.6-5.7,5.4c-6.5-0.4-13,0.1-19.5-0.2c-3.4-0.1-4.6,0.8-4.5,4.4
		C999.5,244.9,999.3,257.7,999.3,270.5z"/>
	<path fill="#10292C" d="M1179.3,263.7c0-13.8,0.3-27.6-0.1-41.5c-0.2-5.7,3.1-5.9,6.8-5.9c3.6,0,6.4,0.3,6.3,5.7
		c-0.4,25-0.1,49.9-0.2,74.9c0,3.8,0.7,5.2,4.8,5c9.1-0.3,18.3,0.1,27.5-0.2c4.4-0.1,4.9,2.2,4.8,5.6c-0.1,3.3-0.2,5.8-4.7,5.7
		c-12.8-0.2-25.6-0.1-38.5-0.1c-5.4,0-6.7-1.3-6.7-6.9C1179.2,292,1179.3,277.8,1179.3,263.7z"/>
	<path fill="#10292C" d="M809.3,263.7c0-13.8,0.3-27.6-0.1-41.4c-0.2-5.6,3-5.9,6.8-5.9c3.6,0,6.4,0.3,6.3,5.7
		c-0.4,25-0.1,49.9-0.2,74.9c0,3.8,0.7,5.2,4.9,5c9.1-0.3,18.3,0.1,27.5-0.2c4.4-0.1,4.9,2.2,4.8,5.6c-0.1,3.3-0.2,5.8-4.7,5.7
		c-12.8-0.2-25.6-0.1-38.5-0.1c-5.3,0-6.7-1.3-6.7-6.9C809.2,292,809.3,277.8,809.3,263.7z"/>
	<path fill="#10292C" d="M1273.9,264c0-14.2,0.3-28.3-0.1-42.5c-0.2-5.3,3.1-5.1,6.3-5.2c3.4,0,6.9-0.2,6.8,5.4c-0.2,25,0,50-0.2,75
		c0,4,0.8,5.5,5.1,5.3c9-0.4,18,0.1,27-0.2c4.6-0.2,4.9,2.7,4.9,5.7c0,3-0.4,5.7-4.9,5.6c-13-0.3-26-0.2-39-0.1
		c-4.2,0-5.9-1.8-5.9-6C1274,292.7,1273.9,278.4,1273.9,264z"/>
	<path fill="#10292C" d="M1000.5,404.9c3.3-7.7,6.1-14,8.7-20.5c1.1-2.8,2.5-4.5,5.7-3.9c3.5,0.7,2,3.5,2,5.3c0.2,7,0.1,14,0,21
		c0,1.5,0.6,3.7-1.9,3.6c-2.3-0.1-1.8-2.2-1.8-3.7c0-6.5,0-13.1-1.4-20.1c-2.6,6.3-5.1,12.6-7.9,18.8c-0.8,1.9-0.8,4.9-3.6,5
		c-3.2,0.1-3.1-3.3-4-5.3c-2.5-5.8-4.6-11.7-6.9-17.5c-0.6,0.1-1.2,0.2-1.8,0.2c0,6,0.1,12-0.1,18c0,1.7,1.2,4.7-2.1,4.4
		c-2.6-0.2-1.5-2.9-1.5-4.4c-0.1-7-0.1-14,0-21c0-1.8-0.9-4.2,2.4-4.5c2.6-0.2,4.5,0.3,5.6,3.2C994.6,390.4,997.4,397,1000.5,404.9z
		"/>
	<path fill="#10292C" d="M1235.7,402.1c0-6.2,0-12.4,0-18.6c0-1.4-0.2-3,1.9-2.9c2.1,0.1,1.8,1.7,1.8,3.1c0,7.4,0,14.9,0,22.3
		c0,1.7,0.8,3.9-1.6,4.6c-2.6,0.7-4-1-5.2-3.1c-3.3-6-6.5-12-9.8-17.9c-0.4-0.8-0.5-2-2.5-2.2c0,6.3,0.1,12.6,0,18.9
		c0,1.6,1,4.2-1.7,4.3c-2.9,0.1-1.9-2.5-2-4.1c-0.1-7-0.1-14.1,0-21.1c0-1.7-1.1-4.3,2-4.8c2.4-0.4,4.1,0.4,5.3,2.8
		c3.3,6.5,7,12.8,10.5,19.3C1234.9,402.4,1235.3,402.2,1235.7,402.1z"/>
	<path fill="#10292C" d="M1316.6,395.8c0-2,0-4,0-6c0-10.2,0.5-10.6,10.7-9.3c3.2,0.4,5.9,1.7,7,4.8c1.1,3.2,0.9,6.5-2.2,8.6
		c-2.2,1.5-1.9,2.4-0.5,4.4c1.8,2.6,2.8,5.7,4,8.6c0.5,1.1,1.6,2.8-0.5,3.4c-1.6,0.5-2.5-0.4-3.1-2c-0.9-2.4-2-4.8-2.9-7.2
		c-1.2-2.9-3.5-4.6-6.5-4.2c-3.8,0.5-1.4,3.9-2.2,5.8c-1,2.5,2.3,7.3-2.1,7.2c-3.3,0-1.1-4.6-1.5-7.2
		C1316.3,400.7,1316.6,398.2,1316.6,395.8z M1323.3,383.4c-4.4-0.6-2.8,3.2-2.9,5.6c-0.2,2.5-0.8,5.4,3.5,5c3.7-0.3,7-1.3,6.8-5.7
		C1330.7,384.2,1327.4,383.5,1323.3,383.4z"/>
	<path fill="#10292C" d="M920.2,395.3c0-2.4-0.4-4.9,0.1-7.2c0.5-2.6-2.4-7,2.1-7.5c5.1-0.5,11.2-2.1,14.9,3.5
		c2.2,3.3,1.8,7.1-1.4,9.7c-1.9,1.5-2.3,2.2-0.7,4.4c1.9,2.7,3,6.1,4.3,9.2c0.4,1,1.1,2.4-0.6,3c-1.3,0.5-2.4-0.1-3-1.3
		c-1.2-2.7-2.2-5.5-3.4-8.3c-1.3-2.9-3.7-4.4-6.8-3.7c-3.1,0.8-1.1,3.7-1.8,5.6c-0.9,2.5,2.1,7.4-2,7.3c-3.5-0.1-1.2-4.9-1.7-7.6
		C919.9,400.2,920.2,397.7,920.2,395.3z M926.1,394c4.3,0,7.8-0.5,8.4-4.9c0.5-3.8-2.1-5.4-5.4-5.6c-2.1-0.1-5.5-1.3-4.9,2.9
		C924.5,389,922,392.9,926.1,394z"/>
	<path fill="#10292C" d="M1303.5,392.2c0,2.4,0.1,4.8,0,7.2c-0.2,7.2-4.2,11.4-11,11.6c-6.9,0.2-11.3-3.7-11.6-10.9
		c-0.3-5.4-0.1-10.8-0.1-16.2c0-1.4-0.3-3.1,1.7-3.3c2.6-0.2,2,1.9,2,3.4c0.1,5-0.1,10,0.1,15c0.1,5,2,8.6,7.8,8.6
		c5,0,7.3-2.7,7.4-8.8c0.1-5.2,0-10.4,0-15.6c0-1.5,0-2.9,2.1-2.7c1.7,0.1,1.7,1.4,1.7,2.6C1303.5,386.2,1303.5,389.2,1303.5,392.2z
		"/>
	<path fill="#10292C" d="M1370.4,409c0,0.9-0.4,1.5-1.4,1.6c-1.6,0.1-2.8-0.5-3-2.2c-0.7-5.5-4.2-6-8.9-6c-4.5-0.1-7.2,0.8-8,5.5
		c-0.3,1.7-1.3,3.3-3.2,2.4c-1.9-0.8-0.6-2.5-0.2-3.7c2.8-7.9,5.7-15.7,8.6-23.6c0.6-1.6,1.4-2.8,3.4-2.7c1.6,0.1,2.7,0.7,3.2,2.2
		c3.1,8.4,6.1,16.9,9.1,25.3C1370.1,408.3,1370.3,408.7,1370.4,409z M1357.3,384.5c-1.6,4.5-2.3,7.6-3.7,10.4c-2,4.2,0,4.3,3.4,4.5
		c4.7,0.3,6.2-0.9,4-5.4C1359.8,391.4,1358.9,388.6,1357.3,384.5z"/>
	<path fill="#10292C" d="M974.1,409.1c0,0.8-0.3,1.5-1.3,1.5c-1.6,0.1-2.9-0.5-3.1-2.1c-0.7-5.4-4.1-6-8.8-6.1c-4.4,0-7.3,0.8-8,5.5
		c-0.3,1.7-1.2,3.3-3.2,2.5c-1.9-0.8-0.7-2.5-0.3-3.6c2.8-7.9,5.7-15.7,8.6-23.6c0.6-1.6,1.3-2.8,3.4-2.7c2,0,2.9,1.1,3.4,2.7
		c2.9,8.1,5.8,16.1,8.7,24.2C973.6,407.9,973.9,408.5,974.1,409.1z M961,384.5c-1.5,4.3-2.3,7.2-3.5,9.8c-1.7,3.7-1.2,5,3.3,5.1
		c4.8,0.1,6-1.1,3.9-5.5C963.4,391.3,962.6,388.6,961,384.5z"/>
	<path fill="#10292C" d="M1086.8,402.6c-3.7-0.7-7.1,0.1-7.8,5.5c-0.2,1.6-1.5,3.2-3.4,2.4c-2-0.8-0.4-2.5,0-3.6
		c2.7-7.7,5.6-15.4,8.4-23.1c0.6-1.8,1.2-3.2,3.5-3.3c2.4-0.1,3,1.5,3.6,3.2c2.8,7.7,5.7,15.4,8.4,23.1c0.4,1.2,2,3.2-0.7,3.8
		c-2.1,0.5-2.5-1.3-3.1-2.8C1093.4,402.5,1093.3,402.6,1086.8,402.6z M1087.3,384.3c-1,2.9-1.6,4.6-2.2,6.3
		c-3.3,9.2-3.3,9.3,6.3,8.4c0.3,0,0.5-0.5,0.9-0.9C1090.8,394,1089.2,389.7,1087.3,384.3z"/>
	<path fill="#10292C" d="M892.1,395.5c0-1.4-0.1-2.8,0-4.2c0.3-3.5-1.7-8.9,1-10.1c3.8-1.8,9-0.6,13.6-0.7c0.8,0,1.6,0.3,1.7,1.3
		c0.1,1.3-0.8,1.7-1.9,1.7c-1.6,0-3.2,0.3-4.8,0c-5.4-1-6.3,1.7-6,6.4c0.2,3.1,1.4,3.7,4,3.5c1.8-0.1,3.6,0,5.4,0
		c1.2,0,1.9,0.6,1.9,1.8c0,1.4-1.1,1.4-2.1,1.4c-1,0-2,0.2-3,0c-5-0.9-6.2,1-6.3,6c-0.2,6.3,3.7,4.5,6.9,4.9c2.1,0.3,6-1.4,6,1.5
		c0,3.2-3.9,1.6-6,1.7c-10.5,0.2-10.5,0.1-10.5-10.2C892.1,398.7,892.1,397.1,892.1,395.5z"/>
	<path fill="#10292C" d="M1170,395.7c0-2.6-0.4-5.3,0.1-7.8c0.5-2.6-2.5-6.8,3-7.5c8.4-1.1,13.6,1,15.1,6.2
		c1.4,4.8-0.8,9.3-5.4,11.2c-0.4,0.2-0.8,0.4-1.1,0.4c-7-0.4-9.4,2.9-8,9.5c0.2,1.2,0,2.6-1.5,2.7c-1.9,0.1-2.1-1.4-2.1-2.9
		C1170,403.7,1170,399.7,1170,395.7z M1173.6,389.7c0.6,2.3-1.6,6.3,3.9,6c4.3-0.3,7-1.9,6.9-6.5c-0.1-4.4-3-5.6-6.9-5.8
		C1172,383,1174.1,387,1173.6,389.7z"/>
	<path fill="#10292C" d="M881.3,404.6c1.2,3.3-0.7,4.2-2.5,5.1c-7.8,3.7-16.1-0.3-18.1-8.9c-1.5-6.4-0.8-12.5,4-17.3
		c3.5-3.6,8-4.3,12.8-2.7c1.3,0.4,2.5,1.2,3.6,2c0.8,0.6,1,1.8,0.3,2.7c-0.6,0.9-1.4,0.2-2-0.2c-5-2.8-9.6-3-13.2,2.2
		c-3.1,4.6-2.9,13.4,0.6,17C871.3,409.3,876.2,407.6,881.3,404.6z"/>
	<path fill="#10292C" d="M1067.7,404.6c-1.3,6.1-5.6,6.2-9.3,6.3c-5.3,0.2-9.4-2.3-11.3-7.3c-2.5-6.8-2.3-13.5,2.5-19.3
		c3.6-4.3,8.4-5.1,13.7-3.4c1.3,0.4,2.5,1.2,3.5,2.1c0.5,0.4,0.7,1.6,0.4,2.2c-0.6,1.5-1.5,0.5-2.3,0.1c-4.8-2.7-9.2-2.8-12.8,1.9
		c-3.4,4.5-3.1,13.7,0.4,17.6C1055.4,408.1,1059.4,408.2,1067.7,404.6z"/>
	<path fill="#10292C" d="M1133.8,394.5c2.2-4.6,4-8.3,5.7-12c0.8-1.7,2.1-2.7,3.8-1.9c2.1,1.1,0,2.5-0.4,3.5
		c-3.7,7.7-8.9,14.9-7.3,24.2c0.2,1.3-0.7,2.4-2.1,2.2c-1.2-0.1-1.6-1.2-1.5-2.2c1.5-9.3-3.9-16.4-7.5-24.1c-0.5-1-2.4-2.4-0.4-3.5
		c1.5-0.8,2.9-0.1,3.8,1.8C1129.5,386.3,1131.4,389.9,1133.8,394.5z"/>
	<path fill="#10292C" d="M1262.4,396.6c0,3.2,0.1,6.4,0,9.6c-0.1,1.6,0.9,4.2-1.8,4.3c-2.9,0.1-1.9-2.5-1.9-4.1
		c-0.1-5.8-0.3-11.6,0-17.4c0.3-4.4-0.9-6.3-5.6-5.7c-1.3,0.2-3.8,1-3.8-1.4c0-2.4,2.5-1.4,3.8-1.4c5.2-0.1,10.4-0.1,15.6,0
		c1.2,0,2.5-0.1,2.6,1.6c0.1,1-0.9,1.4-1.7,1.2c-9.3-2-7.3,4.6-7.4,9.6C1262.4,394.2,1262.4,395.4,1262.4,396.6z"/>
	<path fill="#10292C" d="M1033.9,396.3c0,4,0,8,0,12c0,1.1-0.3,2.1-1.5,2.2c-1.5,0.1-2.2-0.9-2.2-2.2c0-8.4,0-16.8,0-25.3
		c0-1.4,0.4-2.4,1.9-2.5c1.6,0,1.8,1.2,1.8,2.5C1033.9,387.4,1033.9,391.9,1033.9,396.3z"/>
	<path fill="#10292C" d="M1430.7,390.4c3.3,0.2,4.9,2.1,4.9,5.1c-0.1,3-1.9,5.1-5.1,4.9c-3-0.2-4.9-2.1-4.9-5.2
		C1425.7,392,1427.5,390.5,1430.7,390.4z"/>
	<path fill="#10292C" d="M800.7,400.5c-3.4,0-5.2-1.9-5.3-4.9c-0.1-3,1.6-5.2,4.9-5.1c3,0.1,5,1.8,5.1,5
		C805.5,398.7,803.7,400.4,800.7,400.5z"/>
	<path fill="#10292C" d="M816.5,395c0.1-2.6,0.2-5.5,3.6-5.4c4,0.2,3.6,3.7,3.6,6.5c0.1,2.4,0,5-3.3,5.1
		C816.2,401.2,816.7,397.8,816.5,395z"/>
	<path fill="#10292C" d="M1414.5,395.8c0,2.5,0,5.5-3.4,5.6c-4.1,0.1-3.8-3.4-3.9-6.2c-0.1-2.5-0.1-5.4,3.6-5.3
		C1414.7,390,1414.3,393.1,1414.5,395.8z"/>
	<path fill="#10292C" d="M1203.5,395.9c0,4,0,8,0,12c0,1.2,0,2.5-1.6,2.7c-2,0.1-2.1-1.3-2.1-2.8c0-8.2,0-16.4,0-24.6
		c0-1.2,0-2.5,1.7-2.6c2.1-0.2,2.1,1.3,2.1,2.7C1203.5,387.5,1203.5,391.7,1203.5,395.9z"/>
	<path fill="#10292C" d="M968.4,371.5c-4.5,4.6-4.5,4.6-8.4,5.5C962.3,374.9,962.7,370.4,968.4,371.5z"/>
	<path fill="#FDF1E3" d="M589.5,332.6c-2.1,83.2-34,152.1-99.5,204.4c-35.6,28.4-76.1,46-121.2,52.5c-55.4,8-107.5-2.4-156.6-29.3
		c-25.4-13.9-48-31.5-67.8-52.5c-12.8-13.5-23.4-29-32.6-45.3c-9.5-16.7-17-34.3-22.5-52.6c-11.4-38.2-15-77.1-9-116.7
		c4.8-31.8,14.7-61.8,31-89.5c27-45.8,63.4-81.7,111.6-105.2c37.1-18.1,76.1-27,117.3-25.3c74.8,3.1,136.7,33.3,185.9,89.6
		c28,32,46.5,69.1,56.4,110.4C587.2,292.7,589.4,312.5,589.5,332.6z M335.6,500.1C335.6,500,335.6,500,335.6,500.1
		c23.2,0,46.3,0,69.5-0.1c9.5,0,12.1-2.4,12.8-12c0.3-4.7,2.1-8,6.1-10.7c18.8-13,37.4-26.1,53.8-42.1c17.9-17.4,34-36.1,45.4-58.4
		c3.9-7.7,1.2-11.7-7.3-11.7c-26.2,0-52.3-0.2-78.5,0.1c-5.2,0.1-7.9-1.9-9.9-6.3c-6.4-13.9-13-27.7-19.3-41.7
		c-4.5-9.8-3.2-13.8,6-19.4c9.3-5.6,17.2-12.5,21.9-22.6c11.7-24.7-4.5-52.8-31.4-54.5c-10.5-0.6-19.6,3-27.6,9.7
		c-3.7,3.1-4.9,2.8-6.2-1.9c-1.2-4.4-0.1-8.5,2.3-12.4c3-4.9,7.7-8.3,11.2-12.7c2.5-3.2,3.9-6.6,2-10.6c-1.8-3.8-5.2-4.2-8.9-4.2
		c-30.5,0.1-61,0.1-91.5,0.2c-3.5,0-7.2-0.2-9,3.8c-1.8,4.1-0.3,7.6,2.4,10.5c4,4.2,8.2,8.3,12.3,12.4c6.8,6.7,8.2,14.4,4.9,23.3
		c-3.2,8.6-7.1,16.9-10.9,25.2c-14.5,31.8-29.1,63.6-43.5,95.4c-1.9,4.1-4.4,5.8-9.2,5.8c-26.3-0.2-52.7,0.2-79-0.3
		c-8.7-0.2-10.6,6.1-7.4,12.1c0.9,1.6,1.8,3.2,2.7,4.8c11.6,20.1,26.8,37.2,43.4,53.2c16.9,16.2,35.9,29.6,55.1,42.8
		c3.8,2.6,5.4,5.5,5.3,10.2c-0.2,8,3.9,11.9,11.9,11.9C288.6,500.1,312.1,500.1,335.6,500.1z M210.6,502.1c0-0.3,0-0.5,0-0.8
		c6,0,12,0,18,0c1.9,0,4.7,0.4,4.9-2.2c0.2-2.1-2.7-2-4.2-2.8c-0.3-0.2-0.6-0.2-0.9-0.3c-18.5-6-37-12.1-55.6-18.1
		c-6.2-2-11.9-5.1-17.1-9.1c-1.3-1-3.3-2.1-2.2-3.9c1-1.8,2.7-0.1,3.9,0.5c13.3,6.3,28.1,6.8,41.9,11.3c1.6,0.5,3.6,0.3,4.4-1.4
		c0.9-2.1-1-2.9-2.5-3.6c-1.5-0.8-3-1.3-4.6-2c-14.8-6.3-29.8-12.4-44.5-19.1c-7.6-3.5-14.5-8.2-19.5-15.2c-0.7-1.1-2.1-2.2-1.1-3.5
		c1.1-1.5,2.3-0.1,3.5,0.5c3.4,1.7,6.9,3.3,10.6,4.4c10.5,3.2,21,6.5,29.9,13.3c1.6,1.2,4,2.9,5.8,0.7c2.1-2.6-0.5-4.3-2.2-5.7
		c-5.5-4.3-11.3-8.2-16.8-12.6c-10.2-8.3-20.6-16.4-32.9-21.4c-8.9-3.7-15.9-9.1-17.4-19.4c-0.2-1.6-0.6-3.9-2.7-3.4
		c-2.2,0.5-1.1,2.8-0.8,4.3c1.5,7.2,4.2,13.9,7.6,20.5c5.6,10.8,10.1,22.2,16.5,32.5c10.9,17.5,24.4,33.1,39.6,47.2
		c8.7,8.1,16.8,16.7,23.1,26.8c7.9,12.7,21,19.2,32.2,28c0.4,0.3,0.9,0.5,1.4,0.6c1,0.2,2,0.1,2.8-0.7c1-1.1,0.6-2.2-0.2-3.1
		c-3.9-4.6-6.2-10.2-10.2-14.8c-1.7-1.9-5.5-4.4-3.2-6.8c2.1-2.2,5,1.1,7.2,2.7c7.3,5.5,14.6,11,23.1,14.7
		c19.1,8.5,39.5,11.7,59.9,14.8c1,0.1,2,0.1,3-0.1c1.5-0.2,3.3-0.5,3.5-2.3c0.2-1.8-1.7-1.8-2.8-2.3c-6.2-3-12.4-5.7-18.5-8.8
		c-18.7-9.5-38.6-15.2-59.2-18.8c-1.1-0.2-2.2-0.3-2.2-1.5c0-2,1.7-1,2.6-1c8.3-0.2,16.7-0.5,24.9-2c2.1-0.4,5-0.6,5.2-3
		c0.2-2.8-2.9-2.6-4.8-3.2c-1.3-0.4-2.6-0.6-3.9-0.9c-15.1-3.6-30.5-2.5-45.7-3.8c-4.9-0.4-9.5-1.5-14.1-3.2c-1.4-0.5-4-0.8-3.5-2.8
		c0.5-2.3,2.7-0.8,4.2-0.7C201.3,501.1,206,501.6,210.6,502.1z M533.8,235.2c-5.4-3.6-9.8-6.4-14.7-8c-11.6-3.7-23.4-6.7-33.2-14.5
		c-1.4-1.1-3.5-2.1-4.9-0.3c-1.6,2.1,0,3.8,1.6,5.1c3.4,2.7,7,5.1,10.5,7.7c12.1,9,23,19.9,37.3,25.7c10,4.1,18.4,9.5,20,21.4
		c0.2,1.2,0.9,2.8,2.6,2.3c1.5-0.4,1.1-1.9,0.8-3c-1.3-5.7-2.7-11.3-5.3-16.6c-5.1-10.1-9.8-20.4-15.2-30.3
		c-8-14.8-17.9-28.3-29.7-40.4c-12.3-12.6-26.1-24.1-35.6-39c-8.3-13.1-21.4-20.2-33-29.4c-0.4-0.3-0.9-0.5-1.3-0.7
		c-1.2-0.4-2.4-0.3-3.2,0.6c-1,1.1-0.5,2.2,0.3,3.1c4,4.9,6.5,10.8,10.9,15.6c1.5,1.6,4.8,3.8,2.5,6.1c-1.9,1.9-4.6-0.8-6.4-2.3
		c-6.5-5-12.9-10-20.3-13.6c-20.2-10-42.1-13.2-64.1-16.5c-1.1-0.2-2.3,0.1-3.5,0.3c-1.2,0.2-2.3,0.8-2.5,2.1
		c-0.1,1.3,1.2,1.5,2,1.9c2.4,1.1,4.9,2.1,7.3,3.3c20,10.1,40.4,19,62.6,22.9c3.8,0.7,7.5,1.7,12.1,4.1c-9.5,0.4-17.6,0.3-25.7,1.6
		c-3.1,0.5-8.1,0-8.2,3.8c-0.1,3.5,5,2.9,7.9,3.6c15.3,3.9,31.1,2.7,46.7,4c5.4,0.4,10.5,1.8,15.4,3.8c1.1,0.4,2.4,1,1.9,2.4
		c-0.4,1.2-1.6,0.9-2.6,0.7c-11.1-2.5-22.2-1-33.4-1c-2,0-4.7-0.4-5.1,2c-0.4,2.2,2.5,2.4,4,2.9c13.3,4.4,26.7,8.4,39.9,12.9
		c9.4,3.2,19.2,5.6,28,10.7c5.9,3.4,10.2,7.5,11.4,11.5c-7.3-4.7-15.1-7.5-23.3-9.4c-7.1-1.7-14.3-3.3-21.5-4.7
		c-2.8-0.6-7-3.5-8.2,0.6c-1,3.3,3.8,3.8,6.4,4.9c14.8,6.4,29.9,12.3,44.5,19.2C519.7,216.9,528.4,223.4,533.8,235.2z M552.5,322.9
		c0.2,2.9,1.9,4.6,5.1,4.4c3.2-0.1,4.9-2.2,4.9-5.2c0-3.2-2.2-4.9-5.2-4.8C554.2,317.6,552.4,319.4,552.5,322.9z M102.7,323.4
		c0.2,2.2,1.8,4.1,5,3.9c3.1-0.2,4.7-2.4,4.6-5.4c-0.1-2.9-2.3-4.5-5-4.5C104.3,317.4,102.6,319.3,102.7,323.4z M107.3,338.4
		c-2.7,0.2-5.8,0.2-5.6,4c0.2,3.4,3.2,3.3,5.6,3.3c2.7,0,5.9,0.1,5.9-3.6C113.2,338.3,110,338.6,107.3,338.4z M557.4,345.8
		c2.5-0.3,5.8,0.1,5.9-3.6c0.1-3.7-3.1-3.7-5.8-3.7c-2.7,0.1-5.7-0.1-5.7,3.8C551.9,346,554.9,345.6,557.4,345.8z"/>
	<path fill="#FDF1E3" d="M1485.3,243.5c0-2.2,0-4.3,0-6.5c0-9.8,0-9.8,9.6-9.7c2.2,0,4.3,0.2,6.5,0.4c10.5,0.9,15.8,6,15.9,15.4
		c0.1,9.4-5.5,15.6-15.6,16.5c-4.5,0.4-9,0-13.5,0.2c-2.2,0.1-2.9-0.8-2.9-2.9C1485.4,252.5,1485.3,248,1485.3,243.5z"/>
	<path fill="#FDF1E3" d="M1091.7,230c5.6,15.8,10.7,30.3,15.8,44.8c0.8,2.3-0.4,2.5-2.1,2.5c-9,0-18-0.1-26.9,0
		c-3,0-2.8-1.3-2.1-3.4C1081.3,259.7,1086.3,245.4,1091.7,230z"/>
	<path fill="#FDF1E3" d="M1323.3,383.4c4.1,0.1,7.3,0.8,7.5,5c0.1,4.4-3.1,5.3-6.8,5.7c-4.4,0.4-3.7-2.5-3.5-5
		C1320.6,386.6,1318.9,382.8,1323.3,383.4z"/>
	<path fill="#FDF1E3" d="M926.1,394c-4.1-1.1-1.6-5-2-7.6c-0.6-4.1,2.8-3,4.9-2.9c3.4,0.2,5.9,1.8,5.4,5.6
		C933.9,393.5,930.4,394,926.1,394z"/>
	<path fill="#FDF1E3" d="M1357.3,384.5c1.6,4.1,2.4,6.9,3.7,9.5c2.2,4.5,0.7,5.7-4,5.4c-3.4-0.2-5.5-0.3-3.4-4.5
		C1355,392,1355.8,388.9,1357.3,384.5z"/>
	<path fill="#FDF1E3" d="M961,384.5c1.6,4.1,2.4,6.9,3.7,9.5c2.1,4.4,0.9,5.5-3.9,5.5c-4.5-0.1-5-1.4-3.3-5.1
		C958.7,391.6,959.5,388.8,961,384.5z"/>
	<path fill="#FDF1E3" d="M1087.3,384.3c2,5.4,3.5,9.6,5,13.8c-0.4,0.4-0.6,0.9-0.9,0.9c-9.6,0.9-9.6,0.8-6.3-8.4
		C1085.7,388.9,1086.2,387.3,1087.3,384.3z"/>
	<path fill="#FDF1E3" d="M1173.6,389.7c0.5-2.7-1.5-6.7,3.9-6.3c3.9,0.3,6.8,1.4,6.9,5.8c0.1,4.6-2.6,6.2-6.9,6.5
		C1172,396,1174.2,392,1173.6,389.7z"/>
	<path fill="#10292C" d="M335.6,500.1c-23.5,0-47,0-70.5,0c-8,0-12.2-3.9-11.9-11.9c0.1-4.7-1.5-7.6-5.3-10.2
		c-19.2-13.2-38.3-26.6-55.1-42.8c-16.6-16-31.8-33.2-43.4-53.2c-0.9-1.6-1.8-3.2-2.7-4.8c-3.3-6-1.3-12.3,7.4-12.1
		c26.3,0.5,52.7,0,79,0.3c4.8,0,7.3-1.7,9.2-5.8c14.4-31.8,29-63.6,43.5-95.4c3.8-8.3,7.7-16.6,10.9-25.2c3.3-8.9,1.9-16.6-4.9-23.3
		c-4.1-4.1-8.4-8.1-12.3-12.4c-2.7-2.9-4.3-6.4-2.4-10.5c1.8-4,5.5-3.8,9-3.8c30.5-0.1,61-0.1,91.5-0.2c3.7,0,7.1,0.4,8.9,4.2
		c1.9,4,0.5,7.4-2,10.6c-3.5,4.4-8.1,7.9-11.2,12.7c-2.4,3.9-3.5,7.9-2.3,12.4c1.3,4.7,2.5,5,6.2,1.9c8-6.6,17.1-10.3,27.6-9.7
		c27,1.7,43.1,29.8,31.4,54.5c-4.8,10-12.6,16.9-21.9,22.6c-9.2,5.6-10.5,9.6-6,19.4c6.4,13.9,13,27.7,19.3,41.7
		c2,4.4,4.7,6.4,9.9,6.3c26.2-0.3,52.3-0.1,78.5-0.1c8.5,0,11.2,4,7.3,11.7c-11.4,22.4-27.5,41.1-45.4,58.4
		c-16.4,16-35.1,29.1-53.8,42.1c-4,2.7-5.7,6-6.1,10.7c-0.7,9.6-3.3,11.9-12.8,12C381.9,500.1,358.8,500,335.6,500.1
		C335.6,500,335.6,500,335.6,500.1z M336,385.6c0-0.1,0-0.1,0-0.2c-44.8,0-89.6,0-134.4,0c-9.3,0-18.6,0-28,0
		c-5.3,0-5.6,0.6-3.7,5.3c2.3,5.9,6.5,10.4,10.5,15.1c18.2,21,39.7,38.3,61.7,55c9.8,7.5,20.6,11.2,33.7,11.1
		c42.5-0.3,84.9,0.1,127.4-0.2c6.7,0,12.4-1.8,17.8-5.3c21.1-13.8,39.8-30.5,57.4-48.5c7.8-8,15.4-16.2,21.2-25.8
		c3.6-6,3.2-6.4-3.6-6.4C442.6,385.6,389.3,385.6,336,385.6z M334.8,365.1c23.8,0,47.7,0,71.5,0c7.8,0,8-0.4,5-7.4
		c-11.9-27.6-23.9-55.2-35.8-82.8c-5.3-12.4-10.6-24.8-15.9-37.2c-2.2-5.3-5.6-8.1-11.8-7.7c-8.8,0.5-17.7,0.3-26.5,0.1
		c-4.9-0.1-7.9,1.7-9.9,6.4c-11,25.8-22.4,51.5-33.6,77.3c-6.3,14.5-12.7,28.9-19,43.4c-2.8,6.4-1.8,7.9,5,7.9
		C287.5,365.1,311.2,365.1,334.8,365.1z M398.9,280.8c7.5,0,16.5-6.4,19.6-14c3.7-8.9,0.3-18.5-8.1-23c-7.9-4.3-17.3-1.7-22.6,6.3
		c-5.3,8-1.5,25,6.7,30C396,280.8,397.4,280.8,398.9,280.8z"/>
	<path fill="#10292C" d="M210.6,502.1c-4.6-0.5-9.3-1-13.9-1.4c-1.5-0.1-3.7-1.7-4.2,0.7c-0.5,2,2.1,2.2,3.5,2.8
		c4.5,1.7,9.2,2.8,14.1,3.2c15.2,1.2,30.7,0.2,45.7,3.8c1.3,0.3,2.6,0.5,3.9,0.9c2,0.6,5.1,0.4,4.8,3.2c-0.2,2.4-3.1,2.6-5.2,3
		c-8.2,1.5-16.5,1.8-24.9,2c-0.9,0-2.6-1-2.6,1c0,1.1,1.1,1.3,2.2,1.5c20.6,3.6,40.5,9.2,59.2,18.8c6.1,3.1,12.4,5.8,18.5,8.8
		c1.1,0.5,3,0.6,2.8,2.3c-0.2,1.8-2,2-3.5,2.3c-1,0.1-2,0.2-3,0.1c-20.4-3.1-40.8-6.3-59.9-14.8c-8.5-3.7-15.8-9.2-23.1-14.7
		c-2.1-1.6-5.1-4.9-7.2-2.7c-2.3,2.4,1.6,4.9,3.2,6.8c4,4.5,6.3,10.2,10.2,14.8c0.8,1,1.2,2.1,0.2,3.1c-0.7,0.8-1.8,0.9-2.8,0.7
		c-0.5-0.1-1-0.3-1.4-0.6c-11.1-8.9-24.2-15.3-32.2-28c-6.3-10.1-14.5-18.7-23.1-26.8c-15.2-14.1-28.6-29.7-39.6-47.2
		c-6.4-10.3-10.9-21.7-16.5-32.5c-3.4-6.5-6.1-13.3-7.6-20.5c-0.3-1.5-1.5-3.7,0.8-4.3c2.1-0.5,2.5,1.8,2.7,3.4
		c1.6,10.3,8.5,15.7,17.4,19.4c12.3,5.1,22.7,13.1,32.9,21.4c5.4,4.4,11.2,8.3,16.8,12.6c1.7,1.4,4.3,3.1,2.2,5.7
		c-1.8,2.2-4.2,0.6-5.8-0.7c-8.9-6.8-19.4-10.1-29.9-13.3c-3.7-1.1-7.2-2.7-10.6-4.4c-1.1-0.6-2.3-2-3.5-0.5
		c-0.9,1.3,0.4,2.4,1.1,3.5c4.9,7,11.9,11.8,19.5,15.2c14.7,6.7,29.6,12.8,44.5,19.1c1.5,0.7,3.1,1.2,4.6,2c1.4,0.7,3.4,1.5,2.5,3.6
		c-0.8,1.8-2.7,2-4.4,1.4c-13.8-4.5-28.6-5-41.9-11.3c-1.2-0.6-2.9-2.3-3.9-0.5c-1,1.8,1,2.9,2.2,3.9c5.2,4,10.9,7.1,17.1,9.1
		c18.5,6,37,12,55.6,18.1c0.3,0.1,0.7,0.1,0.9,0.3c1.5,0.9,4.4,0.7,4.2,2.8c-0.2,2.5-3,2.2-4.9,2.2c-6,0.1-12,0-18,0
		C210.6,501.5,210.6,501.8,210.6,502.1z M126.5,416.5c-0.4-0.4-0.8-1.1-1.4-0.5c-0.6,0.7,0.1,0.9,0.6,1.2c5.2,8.1,12.8,12,22.2,12.7
		C142.2,423.2,134.2,420,126.5,416.5z M237.5,528c15.4,12.3,33.7,16.2,52.6,18.8C273.8,537.1,256.1,531,237.5,528z M167.7,480.8
		c5.1,10.2,32.8,19.4,42.3,14.2C196.1,490.3,182.1,485.7,167.7,480.8z M217.2,534.7c-0.4-6.1-15-21-21.5-22
		C201.3,521.7,207.7,529.5,217.2,534.7z M245.6,514.6c-9.6-2.5-19.5-2.7-29.5-2.2C225.7,516.4,235.5,516.6,245.6,514.6z"/>
	<path fill="#10292C" d="M533.8,235.2c-5.4-11.8-14.1-18.3-24-22.9c-14.6-6.8-29.7-12.7-44.5-19.2c-2.6-1.1-7.4-1.6-6.4-4.9
		c1.2-4.1,5.4-1.2,8.2-0.6c7.2,1.4,14.3,3,21.5,4.7c8.1,1.9,15.9,4.7,23.3,9.4c-1.3-4-5.6-8.1-11.4-11.5c-8.7-5.1-18.5-7.4-28-10.7
		c-13.2-4.5-26.6-8.5-39.9-12.9c-1.6-0.5-4.4-0.7-4-2.9c0.4-2.4,3.1-2,5.1-2c11.1,0,22.3-1.5,33.4,1c1,0.2,2.2,0.4,2.6-0.7
		c0.5-1.5-0.9-2-1.9-2.4c-5-2.1-10.1-3.4-15.4-3.8c-15.6-1.3-31.4-0.2-46.7-4c-2.9-0.7-7.9-0.1-7.9-3.6c0.1-3.8,5.1-3.2,8.2-3.8
		c8-1.3,16.2-1.3,25.7-1.6c-4.7-2.3-8.4-3.4-12.1-4.1c-22.3-3.9-42.7-12.8-62.6-22.9c-2.4-1.2-4.9-2.2-7.3-3.3
		c-0.9-0.4-2.2-0.6-2-1.9c0.1-1.3,1.3-1.9,2.5-2.1c1.1-0.2,2.3-0.5,3.5-0.3c21.9,3.3,43.9,6.6,64.1,16.5c7.4,3.6,13.8,8.6,20.3,13.6
		c1.9,1.4,4.5,4.2,6.4,2.3c2.3-2.2-1.1-4.5-2.5-6.1c-4.3-4.7-6.8-10.7-10.9-15.6c-0.8-1-1.3-2.1-0.3-3.1c0.9-0.9,2.1-1,3.2-0.6
		c0.5,0.2,0.9,0.4,1.3,0.7c11.5,9.1,24.6,16.3,33,29.4c9.5,15,23.3,26.4,35.6,39c11.8,12.1,21.7,25.6,29.7,40.4
		c5.4,9.9,10.2,20.2,15.2,30.3c2.6,5.3,4,10.9,5.3,16.6c0.2,1.1,0.7,2.6-0.8,3c-1.7,0.5-2.5-1.1-2.6-2.3c-1.6-11.9-10-17.3-20-21.4
		c-14.3-5.8-25.2-16.7-37.3-25.7c-3.5-2.6-7.1-5-10.5-7.7c-1.6-1.2-3.2-3-1.6-5.1c1.4-1.9,3.6-0.8,4.9,0.3
		c9.8,7.8,21.6,10.9,33.2,14.5C524,228.8,528.4,231.5,533.8,235.2z M535.5,246.5c0.4,0.4,0.8,1.1,1.4,0.5c0.6-0.7-0.1-0.9-0.6-1.2
		c-4.6-7.8-15.9-14-22.6-12.1C520.4,239.3,527.1,244.2,535.5,246.5z M425.6,136c-8.8-9.7-45.7-22.4-54.3-19
		C388.3,125.8,405.8,132,425.6,136z M451.9,168c14,4.6,27.9,9.3,42.5,14.1C489.5,172.9,462.7,162.8,451.9,168z M444.3,129.2
		c5.2,9.4,12.7,16.5,22.1,21.8C460,142.8,455.1,133.1,444.3,129.2z M445.8,150.5c-9.6-3.8-19.5-4.3-29.6-2.1
		C426,150.8,435.9,151,445.8,150.5z"/>
	<path fill="#10292C" d="M552.5,322.9c0-3.5,1.8-5.4,4.8-5.5c3-0.1,5.2,1.6,5.2,4.8c0,3-1.7,5-4.9,5.2
		C554.4,327.5,552.7,325.8,552.5,322.9z"/>
	<path fill="#10292C" d="M102.7,323.4c-0.2-4.2,1.6-6,4.6-6c2.7,0,4.8,1.6,5,4.5c0.1,3-1.5,5.2-4.6,5.4
		C104.6,327.6,102.9,325.7,102.7,323.4z"/>
	<path fill="#10292C" d="M107.3,338.4c2.7,0.2,5.9-0.1,5.9,3.6c0,3.7-3.2,3.6-5.9,3.6c-2.5,0-5.5,0.2-5.6-3.3
		C101.5,338.6,104.7,338.6,107.3,338.4z"/>
	<path fill="#10292C" d="M557.4,345.8c-2.6-0.2-5.5,0.2-5.6-3.5c0-3.8,3-3.7,5.7-3.8c2.7-0.1,5.9-0.1,5.8,3.7
		C563.3,345.9,559.9,345.5,557.4,345.8z"/>
	<path fill="#FDF1E3" d="M336,385.6c53.3,0,106.6,0,159.9,0c6.8,0,7.2,0.5,3.6,6.4c-5.8,9.6-13.4,17.8-21.2,25.8
		c-17.6,18-36.3,34.7-57.4,48.5c-5.4,3.5-11.1,5.3-17.8,5.3c-42.5,0.2-84.9-0.1-127.4,0.2c-13.1,0.1-23.8-3.6-33.7-11.1
		c-22-16.7-43.5-34-61.7-55c-4-4.6-8.2-9.2-10.5-15.1c-1.9-4.7-1.6-5.3,3.7-5.3c9.3,0,18.6,0,28,0c44.8,0,89.6,0,134.4,0
		C336,385.4,336,385.5,336,385.6z"/>
	<path fill="#FDF1E3" d="M334.8,365.1c-23.7,0-47.3,0-71,0c-6.9,0-7.9-1.5-5-7.9c6.3-14.5,12.7-28.9,19-43.4
		c11.2-25.7,22.6-51.4,33.6-77.3c2-4.8,5-6.5,9.9-6.4c8.8,0.2,17.7,0.4,26.5-0.1c6.3-0.4,9.6,2.4,11.8,7.7
		c5.2,12.4,10.5,24.8,15.9,37.2c11.9,27.6,23.8,55.2,35.8,82.8c3,7,2.8,7.4-5,7.4C382.5,365.1,358.7,365.1,334.8,365.1z"/>
	<path fill="#FDF1E3" d="M398.9,280.8c-1.5,0-2.9,0-4.3-0.9c-8.2-5-12-22-6.7-30c5.3-8,14.7-10.6,22.6-6.3c8.3,4.5,11.7,14.2,8.1,23
		C415.4,274.4,406.4,280.8,398.9,280.8z"/>
	<path fill="#FDF1E3" d="M237.5,528c18.7,3.1,36.3,9.1,52.6,18.8C271.2,544.2,252.8,540.2,237.5,528z"/>
	<path fill="#FDF1E3" d="M167.7,480.8c14.4,4.8,28.4,9.5,42.3,14.2C200.5,500.2,172.8,491,167.7,480.8z"/>
	<path fill="#FDF1E3" d="M217.2,534.7c-9.6-5.1-15.9-13-21.5-22C202.3,513.7,216.9,528.5,217.2,534.7z"/>
	<path fill="#FDF1E3" d="M126.5,416.5c7.8,3.5,15.8,6.6,21.5,13.5c-9.4-0.7-17-4.7-22.2-12.7C126,417,126.2,416.8,126.5,416.5z"/>
	<path fill="#FDF1E3" d="M245.6,514.6c-10.1,2-20,1.8-29.5-2.2C226.1,512,236,512.1,245.6,514.6z"/>
	<path fill="#FDF1E3" d="M125.7,417.3c-0.5-0.3-1.3-0.5-0.6-1.2c0.6-0.7,1,0.1,1.4,0.5C126.2,416.8,126,417,125.7,417.3z"/>
	<path fill="#FDF1E3" d="M425.6,136c-19.7-4-37.2-10.2-54.3-19C379.9,113.6,416.7,126.3,425.6,136z"/>
	<path fill="#FDF1E3" d="M451.9,168c10.8-5.2,37.6,4.8,42.5,14.1C479.9,177.3,465.9,172.7,451.9,168z"/>
	<path fill="#FDF1E3" d="M444.3,129.2c10.8,3.9,15.7,13.6,22.1,21.8C457.1,145.7,449.6,138.5,444.3,129.2z"/>
	<path fill="#FDF1E3" d="M535.5,246.5c-8.4-2.2-15.2-7.1-21.9-12.9c6.8-1.9,18,4.4,22.6,12.1C536,246,535.8,246.2,535.5,246.5z"/>
	<path fill="#FDF1E3" d="M445.8,150.5c-9.9,0.5-19.8,0.3-29.6-2.1C426.3,146.3,436.2,146.7,445.8,150.5z"/>
	<path fill="#FDF1E3" d="M536.3,245.7c0.5,0.3,1.3,0.5,0.6,1.2c-0.6,0.7-1-0.1-1.4-0.5C535.8,246.2,536,246,536.3,245.7z"/>
</g>
</svg>
