<svg version="1.2" xmlns="http://www.w3.org/2000/svg" viewBox="0 0 877 240" width="877" height="240">
	<title>logo1vec</title>
	<style>
		.s0 { fill: #10292c } 
	</style>
	<g>
		<path class="s0" d="m833.4 77.6c7 4.3 10.3 11 13.1 18 3.1 7.7 6.4 15.4 9.3 23.1 1.8 4.6 1 5.5-4 5.7-8 0.3-7.9 0.2-10.8-7.1-3.2-8-6.1-16.2-9.7-24-4.5-9.9-13.3-14-23.8-12.1-3 0.5-2.1 2.6-2.1 4.2-0.1 11.3-0.3 22.7 0.1 34 0.2 5.2-2.6 5.2-6.2 5.1-3.5-0.1-6.8 0.6-6.8-5.1 0.3-28.2 0.1-56.3 0.1-84.5 0-5.7 1.1-6.9 6.7-6.8 9.7 0.1 19.4-0.9 28.9 0.7 13.5 2.2 21 9.3 22.6 21 1.6 12-3.4 20.6-15.5 26.7-0.5 0.2-1 0.5-1.9 1.1zm-28.1-23.1c0 4.5 0.1 9 0 13.5 0 2.1 0.7 3 2.9 2.9 4.5-0.1 9 0.2 13.5-0.2 10.1-1 15.7-7.1 15.6-16.5-0.1-9.5-5.4-14.6-15.9-15.4-2.2-0.2-4.3-0.4-6.5-0.4-9.6-0.1-9.6-0.1-9.6 9.7 0 2.1 0 4.2 0 6.4z"/>
		<path class="s0" d="m446.3 124.3c-4.1 1-6.5-1-7.8-5.9-1.5-5.8-3.9-11.3-5.8-17-0.7-2-1.7-2.9-3.9-2.8-11.3 0.1-22.7 0.1-34 0-2.6 0-3.3 1.2-4 3.4-2 6.2-4.1 12.3-6.3 18.4-1.2 3.4-10.1 5.8-12.8 3.3-1.9-1.8-0.4-3.8 0.2-5.5 6.1-17 12.3-34.1 18.4-51.1 4-11.1 8.3-22.1 11.9-33.3 1.6-4.9 4.4-6.4 9-6.5 7.6-0.2 8.7 0.4 11.3 7.4q14.9 41.2 29.7 82.5c2.6 7 2.4 7.2-5.9 7.1zm-34.6-83.3c-5.4 15.5-10.3 29.7-15.3 43.9-0.7 2-1 3.4 2.1 3.4 9-0.1 18-0.1 26.9 0 1.7 0 3-0.1 2.1-2.5-5.2-14.5-10.3-29-15.8-44.8z"/>
		<path class="s0" d="m688 75.8c0-13.7 0-27.3 0-41 0-5.8 1.2-6.9 7.1-7 13.7 0 27.3 0.1 41-0.1 4.2-0.1 5.1 1.9 5.1 5.4 0.1 3.7-1.1 5.4-5.2 5.2-10.3-0.3-20.7 0.1-31-0.2-3.4-0.1-4.1 1-4.1 4.2q0.3 11.3 0 22.5c-0.1 3.2 1 3.8 4 3.8 8.7-0.2 17.3 0.1 26-0.1 4.1-0.1 4.8 2.2 4.8 5.2 0 3.1-0.5 5.4-4.7 5.3-8.8-0.3-17.7 0-26.5-0.2-2.9-0.1-3.6 0.8-3.6 3.6q0.3 13.5 0 27c-0.1 3.2 1 3.8 4 3.8 10.3-0.2 20.7 0.1 31-0.1 4-0.1 5.9 1.3 5.9 5.3 0 4.2-1.6 5.7-6 5.6-13.7-0.3-27.3-0.1-41-0.1-5.6 0-6.7-1.2-6.7-6.7-0.1-13.7-0.1-27.5-0.1-41.4z"/>
		<path class="s0" d="m24.9 76.1c0-13.8 0-27.6 0-41.5 0-5.6 1-6.7 6.7-6.7 13.8 0 27.6 0.1 41.5-0.1 4.4-0.1 4.9 2.3 5 5.6 0 3.3-1 5.1-4.9 5-10.5-0.3-21 0-31.5-0.2-3.1-0.1-4 0.9-3.9 3.9 0.2 7.5 0.3 15 0 22.5-0.1 3.5 1.3 4.1 4.3 4 8.5-0.2 17 0.1 25.5-0.1 4.4-0.1 4.9 2.2 4.9 5.6 0 3.5-1 5.1-4.9 4.9-8.6-0.3-17.3 0.1-26-0.2-3.1-0.1-3.9 0.9-3.8 3.9 0.2 8.8 0.2 17.7 0 26.5-0.1 3.5 1.2 4.1 4.3 4 10.3-0.2 20.6 0.1 31-0.1 4.3-0.1 5.5 1.7 5.5 5.6 0 4.1-1.6 5.4-5.7 5.3-13.8-0.2-27.6-0.2-41.5 0-4.7 0-6.5-1.8-6.5-6.5 0.1-13.8 0-27.6 0-41.4z"/>
		<path class="s0" d="m319.3 81.5c0 12.7-0.2 25.3 0.1 38 0.1 5.9-3.7 4.7-7 4.8-3.3 0.1-6 0.3-5.9-4.8 0.3-25.3 0-50.6 0.2-75.9 0-4-1.1-5.1-5-4.9-6.5 0.3-13-0.1-19.5 0.2-4.4 0.2-5.5-1.8-5.4-5.6 0.1-3.5 0.9-5.4 5.1-5.4q30.8 0.3 61.5 0c4.5-0.1 5.4 2.1 5.5 5.7 0.1 3.8-1.5 5.6-5.7 5.4-6.5-0.4-13 0.1-19.5-0.2-3.4-0.1-4.6 0.8-4.5 4.4 0.3 12.7 0.1 25.5 0.1 38.3z"/>
		<path class="s0" d="m499.3 74.7c0-13.8 0.3-27.6-0.1-41.5-0.2-5.7 3.1-5.9 6.8-5.9 3.6 0 6.4 0.3 6.3 5.7-0.4 25-0.1 49.9-0.2 74.9 0 3.8 0.7 5.2 4.8 5 9.1-0.3 18.3 0.1 27.5-0.2 4.4-0.1 4.9 2.2 4.8 5.6-0.1 3.3-0.2 5.8-4.7 5.7-12.8-0.2-25.6-0.1-38.5-0.1-5.4 0-6.7-1.3-6.7-6.9-0.1-14 0-28.2 0-42.3z"/>
		<path class="s0" d="m129.3 74.7c0-13.8 0.3-27.6-0.1-41.4-0.2-5.6 3-5.9 6.8-5.9 3.6 0 6.4 0.3 6.3 5.7-0.4 25-0.1 49.9-0.2 74.9 0 3.8 0.7 5.2 4.9 5 9.1-0.3 18.3 0.1 27.5-0.2 4.4-0.1 4.9 2.2 4.8 5.6-0.1 3.3-0.2 5.8-4.7 5.7-12.8-0.2-25.6-0.1-38.5-0.1-5.3 0-6.7-1.3-6.7-6.9-0.2-14.1-0.1-28.3-0.1-42.4z"/>
		<path class="s0" d="m593.9 75c0-14.2 0.3-28.3-0.1-42.5-0.2-5.3 3.1-5.1 6.3-5.2 3.4 0 6.9-0.2 6.8 5.4-0.2 25 0 50-0.2 75 0 4 0.8 5.5 5.1 5.3 9-0.4 18 0.1 27-0.2 4.6-0.2 4.9 2.7 4.9 5.7 0 3-0.4 5.7-4.9 5.6-13-0.3-26-0.2-39-0.1-4.2 0-5.9-1.8-5.9-6 0.1-14.3 0-28.6 0-43z"/>
		<path class="s0" d="m320.5 215.9c3.3-7.7 6.1-14 8.7-20.5 1.1-2.8 2.5-4.5 5.7-3.9 3.5 0.7 2 3.5 2 5.3 0.2 7 0.1 14 0 21 0 1.5 0.6 3.7-1.9 3.6-2.3-0.1-1.8-2.2-1.8-3.7 0-6.5 0-13.1-1.4-20.1-2.6 6.3-5.1 12.6-7.9 18.8-0.8 1.9-0.8 4.9-3.6 5-3.2 0.1-3.1-3.3-4-5.3-2.5-5.8-4.6-11.7-6.9-17.5-0.6 0.1-1.2 0.2-1.8 0.2 0 6 0.1 12-0.1 18 0 1.7 1.2 4.7-2.1 4.4-2.6-0.2-1.5-2.9-1.5-4.4q-0.1-10.5 0-21c0-1.8-0.9-4.2 2.4-4.5 2.6-0.2 4.5 0.3 5.6 3.2 2.7 6.9 5.5 13.5 8.6 21.4z"/>
		<path class="s0" d="m555.7 213.1q0-9.3 0-18.6c0-1.4-0.2-3 1.9-2.9 2.1 0.1 1.8 1.7 1.8 3.1 0 7.4 0 14.9 0 22.3 0 1.7 0.8 3.9-1.6 4.6-2.6 0.7-4-1-5.2-3.1-3.3-6-6.5-12-9.8-17.9-0.4-0.8-0.5-2-2.5-2.2 0 6.3 0.1 12.6 0 18.9 0 1.6 1 4.2-1.7 4.3-2.9 0.1-1.9-2.5-2-4.1-0.1-7-0.1-14.1 0-21.1 0-1.7-1.1-4.3 2-4.8 2.4-0.4 4.1 0.4 5.3 2.8 3.3 6.5 7 12.8 10.5 19.3 0.5-0.3 0.9-0.5 1.3-0.6z"/>
		<path class="s0" d="m636.6 206.8q0-3 0-6c0-10.2 0.5-10.6 10.7-9.3 3.2 0.4 5.9 1.7 7 4.8 1.1 3.2 0.9 6.5-2.2 8.6-2.2 1.5-1.9 2.4-0.5 4.4 1.8 2.6 2.8 5.7 4 8.6 0.5 1.1 1.6 2.8-0.5 3.4-1.6 0.5-2.5-0.4-3.1-2-0.9-2.4-2-4.8-2.9-7.2-1.2-2.9-3.5-4.6-6.5-4.2-3.8 0.5-1.4 3.9-2.2 5.8-1 2.5 2.3 7.3-2.1 7.2-3.3 0-1.1-4.6-1.5-7.2-0.5-2-0.2-4.5-0.2-6.9zm6.7-12.4c-4.4-0.6-2.8 3.2-2.9 5.6-0.2 2.5-0.8 5.4 3.5 5 3.7-0.3 7-1.3 6.8-5.7 0-4.1-3.3-4.8-7.4-4.9z"/>
		<path class="s0" d="m240.2 206.3c0-2.4-0.4-4.9 0.1-7.2 0.5-2.6-2.4-7 2.1-7.5 5.1-0.5 11.2-2.1 14.9 3.5 2.2 3.3 1.8 7.1-1.4 9.7-1.9 1.5-2.3 2.2-0.7 4.4 1.9 2.7 3 6.1 4.3 9.2 0.4 1 1.1 2.4-0.6 3-1.3 0.5-2.4-0.1-3-1.3-1.2-2.7-2.2-5.5-3.4-8.3-1.3-2.9-3.7-4.4-6.8-3.7-3.1 0.8-1.1 3.7-1.8 5.6-0.9 2.5 2.1 7.4-2 7.3-3.5-0.1-1.2-4.9-1.7-7.6-0.3-2.2 0-4.7 0-7.1zm5.9-1.3c4.3 0 7.8-0.5 8.4-4.9 0.5-3.8-2.1-5.4-5.4-5.6-2.1-0.1-5.5-1.3-4.9 2.9 0.3 2.6-2.2 6.5 1.9 7.6z"/>
		<path class="s0" d="m623.5 203.2c0 2.4 0.1 4.8 0 7.2-0.2 7.2-4.2 11.4-11 11.6-6.9 0.2-11.3-3.7-11.6-10.9-0.3-5.4-0.1-10.8-0.1-16.2 0-1.4-0.3-3.1 1.7-3.3 2.6-0.2 2 1.9 2 3.4 0.1 5-0.1 10 0.1 15 0.1 5 2 8.6 7.8 8.6 5 0 7.3-2.7 7.4-8.8 0.1-5.2 0-10.4 0-15.6 0-1.5 0-2.9 2.1-2.7 1.7 0.1 1.7 1.4 1.7 2.6-0.1 3.1-0.1 6.1-0.1 9.1z"/>
		<path class="s0" d="m690.4 220c0 0.9-0.4 1.5-1.4 1.6-1.6 0.1-2.8-0.5-3-2.2-0.7-5.5-4.2-6-8.9-6-4.5-0.1-7.2 0.8-8 5.5-0.3 1.7-1.3 3.3-3.2 2.4-1.9-0.8-0.6-2.5-0.2-3.7 2.8-7.9 5.7-15.7 8.6-23.6 0.6-1.6 1.4-2.8 3.4-2.7 1.6 0.1 2.7 0.7 3.2 2.2 3.1 8.4 6.1 16.9 9.1 25.3 0.1 0.5 0.3 0.9 0.4 1.2zm-13.1-24.5c-1.6 4.5-2.3 7.6-3.7 10.4-2 4.2 0 4.3 3.4 4.5 4.7 0.3 6.2-0.9 4-5.4-1.2-2.6-2.1-5.4-3.7-9.5z"/>
		<path class="s0" d="m294.1 220.1c0 0.8-0.3 1.5-1.3 1.5-1.6 0.1-2.9-0.5-3.1-2.1-0.7-5.4-4.1-6-8.8-6.1-4.4 0-7.3 0.8-8 5.5-0.3 1.7-1.2 3.3-3.2 2.5-1.9-0.8-0.7-2.5-0.3-3.6 2.8-7.9 5.7-15.7 8.6-23.6 0.6-1.6 1.3-2.8 3.4-2.7 2 0 2.9 1.1 3.4 2.7 2.9 8.1 5.8 16.1 8.7 24.2 0.1 0.5 0.4 1.1 0.6 1.7zm-13.1-24.6c-1.5 4.3-2.3 7.2-3.5 9.8-1.7 3.7-1.2 5 3.3 5.1 4.8 0.1 6-1.1 3.9-5.5-1.3-2.6-2.1-5.3-3.7-9.4z"/>
		<path class="s0" d="m406.8 213.6c-3.7-0.7-7.1 0.1-7.8 5.5-0.2 1.6-1.5 3.2-3.4 2.4-2-0.8-0.4-2.5 0-3.6 2.7-7.7 5.6-15.4 8.4-23.1 0.6-1.8 1.2-3.2 3.5-3.3 2.4-0.1 3 1.5 3.6 3.2 2.8 7.7 5.7 15.4 8.4 23.1 0.4 1.2 2 3.2-0.7 3.8-2.1 0.5-2.5-1.3-3.1-2.8-2.3-5.3-2.4-5.2-8.9-5.2zm0.5-18.3c-1 2.9-1.6 4.6-2.2 6.3-3.3 9.2-3.3 9.3 6.3 8.4 0.3 0 0.5-0.5 0.9-0.9-1.5-4.1-3.1-8.4-5-13.8z"/>
		<path class="s0" d="m212.1 206.5c0-1.4-0.1-2.8 0-4.2 0.3-3.5-1.7-8.9 1-10.1 3.8-1.8 9-0.6 13.6-0.7 0.8 0 1.6 0.3 1.7 1.3 0.1 1.3-0.8 1.7-1.9 1.7-1.6 0-3.2 0.3-4.8 0-5.4-1-6.3 1.7-6 6.4 0.2 3.1 1.4 3.7 4 3.5 1.8-0.1 3.6 0 5.4 0 1.2 0 1.9 0.6 1.9 1.8 0 1.4-1.1 1.4-2.1 1.4-1 0-2 0.2-3 0-5-0.9-6.2 1-6.3 6-0.2 6.3 3.7 4.5 6.9 4.9 2.1 0.3 6-1.4 6 1.5 0 3.2-3.9 1.6-6 1.7-10.5 0.2-10.5 0.1-10.5-10.2 0.1-1.8 0.1-3.4 0.1-5z"/>
		<path class="s0" d="m490 206.7c0-2.6-0.4-5.3 0.1-7.8 0.5-2.6-2.5-6.8 3-7.5 8.4-1.1 13.6 1 15.1 6.2 1.4 4.8-0.8 9.3-5.4 11.2-0.4 0.2-0.8 0.4-1.1 0.4-7-0.4-9.4 2.9-8 9.5 0.2 1.2 0 2.6-1.5 2.7-1.9 0.1-2.1-1.4-2.1-2.9-0.1-3.8-0.1-7.8-0.1-11.8zm3.6-6c0.6 2.3-1.6 6.3 3.9 6 4.3-0.3 7-1.9 6.9-6.5-0.1-4.4-3-5.6-6.9-5.8-5.5-0.4-3.4 3.6-3.9 6.3z"/>
		<path class="s0" d="m201.3 215.6c1.2 3.3-0.7 4.2-2.5 5.1-7.8 3.7-16.1-0.3-18.1-8.9-1.5-6.4-0.8-12.5 4-17.3 3.5-3.6 8-4.3 12.8-2.7 1.3 0.4 2.5 1.2 3.6 2 0.8 0.6 1 1.8 0.3 2.7-0.6 0.9-1.4 0.2-2-0.2-5-2.8-9.6-3-13.2 2.2-3.1 4.6-2.9 13.4 0.6 17 4.5 4.8 9.4 3.1 14.5 0.1z"/>
		<path class="s0" d="m387.7 215.6c-1.3 6.1-5.6 6.2-9.3 6.3-5.3 0.2-9.4-2.3-11.3-7.3-2.5-6.8-2.3-13.5 2.5-19.3 3.6-4.3 8.4-5.1 13.7-3.4 1.3 0.4 2.5 1.2 3.5 2.1 0.5 0.4 0.7 1.6 0.4 2.2-0.6 1.5-1.5 0.5-2.3 0.1-4.8-2.7-9.2-2.8-12.8 1.9-3.4 4.5-3.1 13.7 0.4 17.6 2.9 3.3 6.9 3.4 15.2-0.2z"/>
		<path class="s0" d="m453.8 205.5c2.2-4.6 4-8.3 5.7-12 0.8-1.7 2.1-2.7 3.8-1.9 2.1 1.1 0 2.5-0.4 3.5-3.7 7.7-8.9 14.9-7.3 24.2 0.2 1.3-0.7 2.4-2.1 2.2-1.2-0.1-1.6-1.2-1.5-2.2 1.5-9.3-3.9-16.4-7.5-24.1-0.5-1-2.4-2.4-0.4-3.5 1.5-0.8 2.9-0.1 3.8 1.8 1.6 3.8 3.5 7.4 5.9 12z"/>
		<path class="s0" d="m582.4 207.6c0 3.2 0.1 6.4 0 9.6-0.1 1.6 0.9 4.2-1.8 4.3-2.9 0.1-1.9-2.5-1.9-4.1-0.1-5.8-0.3-11.6 0-17.4 0.3-4.4-0.9-6.3-5.6-5.7-1.3 0.2-3.8 1-3.8-1.4 0-2.4 2.5-1.4 3.8-1.4q7.8-0.1 15.6 0c1.2 0 2.5-0.1 2.6 1.6 0.1 1-0.9 1.4-1.7 1.2-9.3-2-7.3 4.6-7.4 9.6 0.2 1.3 0.2 2.5 0.2 3.7z"/>
		<path class="s0" d="m353.9 207.3q0 6 0 12c0 1.1-0.3 2.1-1.5 2.2-1.5 0.1-2.2-0.9-2.2-2.2 0-8.4 0-16.8 0-25.3 0-1.4 0.4-2.4 1.9-2.5 1.6 0 1.8 1.2 1.8 2.5 0 4.4 0 8.9 0 13.3z"/>
		<path class="s0" d="m750.7 201.4c3.3 0.2 4.9 2.1 4.9 5.1-0.1 3-1.9 5.1-5.1 4.9-3-0.2-4.9-2.1-4.9-5.2 0.1-3.2 1.9-4.7 5.1-4.8z"/>
		<path class="s0" d="m120.7 211.5c-3.4 0-5.2-1.9-5.3-4.9-0.1-3 1.6-5.2 4.9-5.1 3 0.1 5 1.8 5.1 5 0.1 3.2-1.7 4.9-4.7 5z"/>
		<path class="s0" d="m136.5 206c0.1-2.6 0.2-5.5 3.6-5.4 4 0.2 3.6 3.7 3.6 6.5 0.1 2.4 0 5-3.3 5.1-4.2 0-3.7-3.4-3.9-6.2z"/>
		<path class="s0" d="m734.5 206.8c0 2.5 0 5.5-3.4 5.6-4.1 0.1-3.8-3.4-3.9-6.2-0.1-2.5-0.1-5.4 3.6-5.3 3.9 0.1 3.5 3.2 3.7 5.9z"/>
		<path class="s0" d="m523.5 206.9q0 6 0 12c0 1.2 0 2.5-1.6 2.7-2 0.1-2.1-1.3-2.1-2.8q0-12.3 0-24.6c0-1.2 0-2.5 1.7-2.6 2.1-0.2 2.1 1.3 2.1 2.7-0.1 4.2-0.1 8.4-0.1 12.6z"/>
		<path class="s0" d="m288.4 182.5c-4.5 4.6-4.5 4.6-8.4 5.5 2.3-2.1 2.7-6.6 8.4-5.5z"/>
	</g>
</svg>