<svg version="1.2" xmlns="http://www.w3.org/2000/svg" viewBox="0 0 556 556" width="556" height="556">
	<title>logoT3-VEC</title>
	<style>
		.s0 { fill: #fcf0e2 } 
		.s1 { fill: #122b2e } 
	</style>
	<g>
		<path class="s0" d="m-55 277.5c0-109.2 0-218.3-0.1-327.5 0-3.4 0.7-4.1 4.1-4.1 218.3 0.1 436.7 0.1 655 0 3.4 0 4.1 0.7 4.1 4.1-0.1 218.7-0.1 437.3 0 656 0 3.4-0.7 4.1-4.1 4.1-218.3-0.1-436.7-0.1-655 0-3.4 0-4.1-0.7-4.1-4.1 0.1-109.5 0.1-219 0.1-328.5zm327.7 269.4c43.4 0.6 82.2-7.9 121.8-28 114.5-57.8 164.5-177.1 144-291.5-11-61.8-42.8-112.6-89.1-154-52.9-47.2-115.7-67.4-186.3-63.5-34.2 1.9-67.2 9.6-98.1 24.8-127.4 62.7-180.4 204.2-137.7 331.3 37.4 111.3 144.1 179.6 245.4 180.9z"/>
		<path class="s1" d="m272.7 546.9c-101.3-1.3-208-69.6-245.4-180.9-42.7-127.1 10.3-268.6 137.7-331.3 30.9-15.2 63.8-22.9 98.1-24.8 70.6-4 133.4 16.3 186.3 63.5 46.4 41.4 78.1 92.2 89.1 154 20.5 114.4-29.5 233.7-143.9 291.5-39.7 20.1-78.5 28.6-121.9 28zm6.9-9.1c9.8-0.6 19.7-0.8 29.4-2 30-3.8 58.5-12.9 85.1-27.4 82.8-45 128.4-115 138.6-208.2 4.3-39.4-1.3-78.2-16.5-114.8-40.1-96.4-111.6-152.7-216-165.4-27.3-3.3-54.4-1-81.1 5.6-53.9 13.2-98.5 41.2-134.4 83.4-35.5 41.7-56.2 89.6-61.4 144.1-2.8 29.2 0.2 58 6.7 86.6 26.9 118.2 136.3 198.5 249.6 198.1z"/>
		<path class="s0" d="m279.6 537.8c-113.3 0.5-222.7-79.8-249.7-198.1-6.5-28.6-9.5-57.4-6.7-86.6 5.2-54.5 25.9-102.5 61.4-144.1 35.9-42.1 80.6-70.1 134.4-83.4 26.7-6.6 53.8-8.9 81.1-5.6 104.4 12.7 175.9 69 216 165.5 15.2 36.6 20.8 75.4 16.5 114.8-10.1 93.1-55.8 163.1-138.6 208.2-26.6 14.4-55 23.5-85 27.2-9.7 1.3-19.6 1.4-29.4 2.1zm173.9-392.3c-9.2-4.4-18.9-7.4-28.9-9.3-5.4-1-10.7-2.4-16-3.8-2.1-0.5-4.5-1.6-5.4 1.4-0.9 3 1.8 3.4 3.8 4.2 15 6.3 30.1 12.5 45 19 8.8 3.8 16.6 9.2 22.1 17.4 0.9 1.3 2.4 2.4 1.5 4.8-4.4-2.8-8.8-5.4-13.7-6.8-11.2-3.3-22.3-6.8-31.8-14-1.3-1-3.4-2.3-4.9-0.3-1.7 2.4 0.2 4.2 2 5.4 13 8.9 24.6 20 38.3 28 2.6 1.5 5.1 3.1 7.9 4.3 10.4 4.3 19.6 9.5 21.1 22.2 0 0.2 0.2 0.3 0.2 0.4 0.4 1 1 1.8 2.2 1.5 1.3-0.3 1.2-1.5 1-2.4-0.7-3.1-1.3-6.2-2.5-9.1-12.3-30.5-27.6-59.1-51.5-82.3-10.6-10.3-21.9-20.4-29.9-32.8-8.8-13.7-21.6-22.4-34.4-31.3-1.5-1-3-1.8-4.5-0.5-1.9 1.6-0.2 3 0.7 4.2 4 5.5 6.9 11.8 12 16.6 1.1 1 2.1 2.4 0.6 3.9-1.4 1.4-2.8 0.6-4-0.3-1.1-0.8-2.1-1.6-3.1-2.5-13-10.9-28-17.9-44.3-22.1-9-2.3-18.2-4.2-27.4-5.5-4.8-0.7-9.5-2.1-14.3-1.7-1.3 0.1-2.8 0.5-3.1 2.1-0.3 1.6 1.1 1.8 2.1 2.3 22.2 10.6 44.2 21.7 68.9 25.8 3.4 0.6 7.1 1.1 10.8 4.1-2.6 0.2-4.3 0.4-6.1 0.4-7 0.1-14 0.5-20.9 1.9-2 0.4-4.9 0-4.9 3.1 0 3.1 3 2.6 4.9 3.1 13.8 3.5 28 3.7 42.2 4.1 7.7 0.2 15.3 1.1 22.4 4.2 0.9 0.4 2.4 0.8 1.8 2.4-0.5 1.2-1.5 0.9-2.5 0.7-10.9-2.3-21.9-1.2-32.9-0.8-1.8 0.1-4.6-0.7-4.9 2.1-0.3 2.5 2.5 2.3 4.1 2.8 18.8 6.2 37.6 12.3 56.4 18.5 8.2 2.7 15.6 6.6 20.7 13.8-0.4 0.4-0.6 0.6-0.8 0.8zm-173.4 299.7c8.2 0 16.3 0 24.5 0 15.5 0 31 0 46.5-0.1 7.2-0.1 10.6-2.7 10.8-9 0.2-7 3.6-11.7 9.2-15.6 9.2-6.3 18.4-12.7 27.2-19.5 26.9-21 50.5-45 67.2-75.1 6.6-12 4.6-15.4-9-15.3-24.2 0-48.3 0-72.5 0.3-6.5 0.1-10.5-2.3-13.1-8.4-5.7-13.1-12-26-17.9-38.9-4.9-10.8-4-14 5.8-20.2 6.1-3.8 11.8-8.2 16.3-13.8 18.1-22.6 8.1-55.1-19.2-61.9-12.9-3.2-24.3 0.1-34.4 8.6-3.4 2.9-4.9 2.4-6.1-2-1.3-5.1 0.1-9.6 3.2-13.6 2.8-3.5 6-6.7 9-10 3-3.4 5.2-7.1 3.2-11.8-2-4.6-6.3-4.5-10.3-4.5-30.2 0-60.3 0.2-90.5 0.3-3.4 0-6.9-0.1-8.5 3.8-1.7 4-0.5 7.5 2.4 10.5 3.5 3.6 6.9 7.3 10.6 10.6 8.5 7.7 10.3 16.5 5.8 27-17.1 39.7-35.8 78.7-53.4 118.1-2.2 4.9-6.1 6.1-10.9 6.1-24.3-0.1-48.7-0.2-73-0.2-2.5 0-5 0-7.5 0.5-4.7 0.8-6.7 3.8-5.2 8.3 1 3 2.5 5.8 4.1 8.5 16.7 28 39 51 64.4 71 10.6 8.3 21.7 15.9 32.7 23.8 3.8 2.7 6.1 5.9 6.2 10.7 0.4 9 3.4 11.9 12.3 11.9 23.5-0.1 46.8-0.1 70.1-0.1zm-119.1 1.4c4.2 0 8.3 0 12.5 0 1.8 0 4.1 0.3 4.4-2.1 0.3-2.6-2.2-2.5-3.8-3-19.1-6.2-38.3-12.4-57.4-18.6-5.9-1.9-11.3-4.9-16.1-8.8-1.1-0.9-3.1-1.8-2.3-3.4 1.2-2.2 2.9-0.3 4.3 0.3 13.4 5.9 28 6.9 41.9 11.1 1.5 0.4 3.1 0.2 3.7-1.6 0.6-1.9-0.7-2.7-2.1-3.4-1.5-0.7-3-1.4-4.5-2-14.8-6.4-29.6-12.7-44.4-19.1-7.9-3.5-14.8-8.4-19.8-15.5-0.6-0.9-1.8-1.8-0.8-3 1-1.2 2.1-0.3 3.1 0.2 5.1 2.8 10.7 4.6 16.2 6.3 8.7 2.5 16.9 6 24.2 11.5 1.9 1.4 4.1 3 6 0.2 1.9-2.8-0.5-4.2-2.3-5.6-8.1-6.1-16.3-12.1-24.3-18.4-7.4-5.8-15.1-10.9-23.8-14.6-9.6-4.1-17.6-9.5-19-21-0.2-1.3-0.8-2.7-2.6-2.2-1.6 0.4-1.1 1.8-1 2.9 0.1 0.8 0.4 1.6 0.6 2.4 2.2 11.7 8.7 21.5 13.5 32 10.2 22.4 24.6 41.8 42.2 58.9 9.7 9.4 20.2 18.2 27.2 29.8 8.7 14.2 22.2 22.7 35 32.2 1.5 1.1 3.1 1.6 4.5 0.2 1.6-1.5 0.1-2.7-0.8-3.9-4-5.5-6.9-11.8-12-16.6-1.1-1-2-2.4-0.7-3.9 1.3-1.5 2.7-0.7 4 0.2 1.1 0.7 2.1 1.6 3.1 2.5 13.6 11.1 29.1 18.5 46.2 22.5 11 2.5 22.1 4.6 33.3 6.4 2.3 0.4 4.6 0.3 7 0.3 1.2 0 2.3-0.6 2.6-1.9 0.4-1.6-0.9-1.9-2-2.4-12.2-5.3-23.8-11.9-36.3-16.6-13.1-4.9-26.6-8.3-40.4-10.9-1.3-0.2-3.3 0-3.2-1.6 0.1-2.3 2.3-1.1 3.5-1.2 7.8-0.2 15.7-0.4 23.4-2 2-0.4 4.9-0.1 5-3 0.1-3.1-2.9-2.7-4.8-3.2-13.5-3.5-27.3-3.8-41.2-4.1-7.9-0.2-15.6-1-23-4-1.1-0.5-2.9-0.6-2.4-2.5 0.4-1.6 1.9-0.9 3-0.7 6.9 1.2 13.8 1 20.6 0.9zm335.5-178.8c0.1 3.1 1.5 5.1 4.7 5.1 3.1 0 4.9-1.7 5.2-4.8 0.2-3.3-1.7-5-4.7-5.1-3.2-0.2-4.9 1.7-5.2 4.8zm-439.4-0.7c-0.1-2.7-1.9-4.2-5-4.1-3.5 0.1-4.4 2.4-4.4 5.3 0 3 1.7 4.7 4.7 4.5 3-0.1 4.8-1.9 4.7-5.7zm-4.9 24c2.3-0.2 5.5 0.6 5.8-3.3 0.2-4-2.8-3.8-5.5-3.8-2.6 0-5.7-0.3-5.7 3.6-0.1 3.7 2.7 3.4 5.4 3.5zm449.1 0.1c2.6-0.2 5.8 0.5 5.9-3.5 0.1-4-3-3.6-5.6-3.6-2.7 0-5.6-0.1-5.6 3.8 0 3.8 3 3.1 5.3 3.3z"/>
		<path class="s1" d="m280.1 445.2c-23.3 0-46.7 0-70 0-8.9 0-11.9-2.9-12.3-11.9-0.2-4.8-2.5-8-6.2-10.7-11-7.8-22.1-15.4-32.7-23.8-25.5-20-47.7-43-64.4-71-1.6-2.7-3.2-5.5-4.1-8.5-1.5-4.5 0.5-7.5 5.2-8.3 2.4-0.4 5-0.5 7.5-0.5 24.3 0 48.7 0.1 73 0.2 4.9 0 8.8-1.2 10.9-6.1 17.6-39.5 36.3-78.4 53.4-118.1 4.5-10.6 2.7-19.4-5.8-27-3.7-3.4-7.1-7-10.6-10.6-2.9-3-4.1-6.5-2.4-10.5 1.6-3.8 5.1-3.8 8.5-3.8 30.2-0.1 60.3-0.2 90.5-0.3 4 0 8.3-0.1 10.3 4.5 2 4.7-0.2 8.4-3.2 11.8-3 3.4-6.2 6.5-9 10-3.2 3.9-4.5 8.5-3.2 13.6 1.1 4.4 2.6 4.9 6.1 2 10.1-8.5 21.5-11.8 34.4-8.6 27.2 6.8 37.2 39.3 19.2 61.9-4.5 5.7-10.2 10-16.3 13.8-9.8 6.2-10.8 9.4-5.8 20.2 5.9 13 12.2 25.8 17.9 38.9 2.6 6.1 6.7 8.4 13.1 8.4 24.2-0.2 48.3-0.2 72.5-0.3 13.6 0 15.6 3.4 9 15.3-16.7 30.1-40.3 54.1-67.2 75.1-8.8 6.9-18 13.2-27.2 19.5-5.6 3.8-9 8.5-9.2 15.6-0.2 6.3-3.6 8.9-10.8 9-15.5 0.1-31 0.1-46.5 0.1-8.2 0.1-16.4 0.1-24.6 0.1zm0.2-114.2q0-0.1 0-0.3-2.2 0-4.5 0-77.7 0-155.4 0c-0.8 0-1.7 0-2.5 0-4.5 0.3-5.1 1.3-3.3 5.6 1.7 4 4.3 7.5 7 10.8 20.5 24.6 45.2 44.6 71.2 63.1 6.8 4.8 14.4 6.9 22.9 6.9 43.5-0.2 87-0.1 130.4 0 7.6 0 14.3-2 20.6-6.2 15.8-10.6 30.4-22.7 44-35.9 11.9-11.6 24.2-22.9 32.9-37.4 1-1.6 2.9-3.4 1.9-5.4-1.1-2.2-3.6-1.1-5.5-1.1-51.6-0.1-103.3 0-154.9 0-1.5-0.1-3.1-0.1-4.8-0.1zm-0.3-20.1c23.6 0 47.3 0 70.9 0 6.9 0 7.7-1.2 5-7.5-6.9-16.1-14-32.2-20.9-48.3-10.1-23.4-20.2-46.8-30-70.3-2.8-6.6-6.8-9.5-14-9.1-7.6 0.4-15.3 0.4-23 0-6.7-0.3-10.5 2.3-13.2 8.6-12.9 30.3-26.3 60.4-39.4 90.6-4.2 9.7-8.5 19.4-12.6 29.2-2 4.8-0.9 6.4 4.2 6.8 1.5 0.1 3 0.1 4.5 0.1 22.8-0.1 45.7-0.1 68.5-0.1zm84.4-106c-0.1-8.5-6.4-15.9-14.8-17.6-7.2-1.4-15.9 3.6-18.9 10.9-2.9 7.2 0.6 21.2 6.5 26.3 1.6 1.3 3.4 2.2 5.4 2.3 10.9 0.2 21.9-11 21.8-21.9z"/>
		<path class="s1" d="m454.2 144.8c-5.2-7.3-12.6-11.1-20.7-13.8-18.8-6.2-37.6-12.3-56.4-18.5-1.6-0.5-4.3-0.4-4.1-2.8 0.3-2.8 3.1-2 4.9-2.1 11-0.4 22-1.4 32.9 0.8 1 0.2 2 0.6 2.5-0.7 0.6-1.6-0.8-2-1.8-2.4-7.2-3.1-14.7-4-22.4-4.2-14.2-0.4-28.3-0.6-42.2-4.1-1.9-0.5-4.9-0.1-4.9-3.1 0-3.1 2.8-2.7 4.9-3.1 6.9-1.4 13.9-1.8 20.9-1.9 1.7 0 3.5-0.2 6.1-0.4-3.7-3-7.3-3.5-10.8-4.1-24.6-4.1-46.7-15.2-68.9-25.8-1-0.5-2.4-0.7-2.1-2.3 0.3-1.6 1.8-2 3.1-2.1 4.9-0.4 9.6 1 14.3 1.7 9.2 1.3 18.4 3.1 27.4 5.5 16.3 4.2 31.3 11.2 44.3 22.1 1 0.9 2.1 1.7 3.1 2.5 1.3 0.9 2.6 1.7 4 0.3 1.5-1.5 0.5-2.9-0.6-3.9-5.1-4.8-7.9-11.1-12-16.6-0.9-1.3-2.6-2.6-0.7-4.2 1.5-1.3 3-0.5 4.5 0.5 12.9 8.9 25.6 17.7 34.4 31.3 8.1 12.5 19.3 22.5 29.9 32.8 23.9 23.3 39.2 51.8 51.5 82.3 1.2 2.9 1.8 6.1 2.5 9.1 0.2 0.9 0.3 2.1-1 2.4-1.2 0.3-1.8-0.5-2.2-1.5-0.1-0.2-0.2-0.3-0.2-0.4-1.5-12.7-10.8-17.9-21.1-22.2-2.8-1.1-5.3-2.7-7.9-4.3-13.7-8.1-25.2-19.1-38.3-28-1.8-1.2-3.6-3.1-2-5.4 1.4-2.1 3.6-0.7 4.9 0.3 9.5 7.2 20.6 10.7 31.8 14 4.9 1.4 9.3 4.1 13.7 6.8 0.9-2.4-0.7-3.5-1.5-4.8-5.5-8.1-13.3-13.5-22.1-17.4-14.9-6.5-30-12.7-45-19-2-0.8-4.7-1.2-3.8-4.2 0.9-3 3.3-1.9 5.4-1.4 5.3 1.3 10.6 2.7 16 3.8 10 1.9 19.7 4.8 28.9 9.3 0.4 0.1 1.1 0.3 1.2 0.2 0.5-0.6 0-0.8-0.4-1zm-64-69c-0.3-0.2-0.6-0.3-0.9-0.5 0 0.4 0.1 0.8 0.1 1.1 4.7 8.6 11.6 14.8 20 19.3-1.1-2.3-2.5-4.4-4-6.3-4.1-5.5-8.2-11.2-15.2-13.6zm89.6 116.4c0.3 0.2 0.6 0.4 0.9 0.5 0-0.4 0-0.8-0.1-1.2-5.5-7.6-12.2-12.9-23.4-12.4 7.5 6.1 14.1 11.3 22.6 13.1zm-113.2-111.8c0.4 0.1 1 0.3 1.1 0.2 0.3-0.6-0.2-0.6-0.6-0.7-9.4-8.4-21.1-11.9-33-14.9-2.6-0.6-5.2-1-7.8-1.6-2.6-0.6-5.2-0.6-8.6-0.2 16 8.7 31.8 14.8 48.9 17.2zm72.3 47.8c-8.6-11.6-33.6-19.8-43.5-14.5 14.5 4.9 28.7 9.6 43.5 14.5zm-50.8-31.4c-8.5-4.3-17.3-4.6-27.3-2.6 5.8 2 10.7 2 15.5 2.5 3.9 0.4 7.9 0.1 11.8 0.1z"/>
		<path class="s1" d="m161 446.6c-6.8 0.1-13.7 0.2-20.4-0.9-1.1-0.2-2.5-0.9-3 0.7-0.5 1.8 1.3 2 2.4 2.5 7.3 3.1 15.1 3.8 23 4 13.8 0.4 27.7 0.6 41.2 4.1 1.9 0.5 4.9 0.1 4.8 3.2-0.1 2.9-3 2.6-5 3-7.7 1.5-15.5 1.7-23.4 2-1.2 0-3.4-1.2-3.5 1.2-0.1 1.6 2 1.4 3.2 1.6 13.7 2.6 27.3 6 40.4 10.9 12.5 4.7 24.1 11.3 36.3 16.6 1.1 0.5 2.4 0.8 2 2.4-0.3 1.3-1.5 1.9-2.6 1.9-2.3 0-4.7 0.1-7-0.3-11.2-1.8-22.3-3.9-33.3-6.4-17.2-4-32.6-11.4-46.2-22.5-1-0.8-2-1.7-3.1-2.5-1.3-0.9-2.7-1.7-4-0.2-1.3 1.5-0.4 2.9 0.7 3.9 5.1 4.7 8 11.1 12 16.6 0.8 1.1 2.4 2.3 0.8 3.9-1.4 1.4-3.1 0.9-4.5-0.2-12.8-9.5-26.3-18-35-32.2-7.1-11.6-17.5-20.4-27.2-29.8-17.6-17.1-32.1-36.5-42.2-58.9-4.8-10.5-11.4-20.4-13.5-32-0.2-0.8-0.5-1.6-0.6-2.4-0.2-1.1-0.6-2.5 1-2.9 1.8-0.5 2.5 0.9 2.6 2.2 1.4 11.5 9.4 16.9 19 21 8.6 3.7 16.4 8.8 23.8 14.6 8 6.3 16.2 12.2 24.3 18.4 1.8 1.4 4.2 2.8 2.3 5.6-1.9 2.8-4.1 1.2-6-0.2-7.3-5.5-15.5-9-24.2-11.5-5.6-1.6-11.1-3.5-16.2-6.3-1-0.6-2.1-1.4-3.1-0.2-1 1.2 0.2 2.2 0.8 3 5 7.1 11.9 12.1 19.8 15.5 14.8 6.5 29.6 12.7 44.4 19.1 1.5 0.7 3 1.3 4.5 2 1.4 0.7 2.7 1.5 2.1 3.4-0.6 1.8-2.3 2-3.7 1.6-13.8-4.1-28.5-5.2-41.9-11.1-1.4-0.6-3.1-2.5-4.3-0.3-0.9 1.6 1.2 2.5 2.3 3.4 4.8 3.9 10.2 6.9 16.1 8.8 19.1 6.2 38.3 12.4 57.4 18.6 1.6 0.5 4.2 0.5 3.8 3-0.3 2.4-2.6 2.1-4.4 2.1-4.4 0-8.5 0-12.7 0zm73.4 45.2c-8.7-7.1-39.3-17.9-52.6-18.5 16.6 11.5 33.8 17.2 52.6 18.5zm-121.9-65.4c8.3 11 30.6 18.7 41.9 14.6-13.5-6.2-27-10.8-41.9-14.6zm49.3 53.2c-2.1-8.3-14.1-20.3-21-21.1 5.2 8.9 11.5 16.2 21 21.1zm-69.2-104.4c-6.4-7.6-14.6-10.4-23.4-14.5 5.7 9.2 12.7 13.9 23.4 14.5zm70.2 82.7c8.6 3.6 17.3 4 26.2 1.7-8.6-2.1-17.4-3-26.2-1.7z"/>
		<path class="s1" d="m496.5 267.8c0.3-3.1 2-5 5.1-4.8 3 0.2 5 1.8 4.7 5.1-0.2 3.1-2 4.8-5.2 4.8-3.1 0-4.5-2-4.6-5.1z"/>
		<path class="s1" d="m57.1 267.1c0 3.8-1.7 5.6-4.8 5.7-2.9 0.1-4.6-1.5-4.7-4.5 0-3 0.9-5.3 4.4-5.3 3.3-0.1 5 1.5 5.1 4.1z"/>
		<path class="s1" d="m52.2 291.1c-2.7-0.1-5.6 0.2-5.5-3.5 0.1-3.9 3.1-3.6 5.7-3.6 2.7 0 5.7-0.2 5.5 3.8-0.1 3.9-3.4 3.1-5.7 3.3z"/>
		<path class="s1" d="m501.3 291.2c-2.3-0.2-5.3 0.5-5.3-3.3 0-3.9 2.9-3.8 5.6-3.8 2.6 0 5.7-0.4 5.6 3.6-0.1 3.9-3.3 3.3-5.9 3.5z"/>
		<path class="s0" d="m280.3 331c1.7 0 3.3 0 5 0 51.6 0 103.3 0 154.9 0 1.9 0 4.4-1.1 5.5 1.1 1 2-1 3.7-1.9 5.4-8.7 14.5-21 25.7-32.9 37.4-13.6 13.3-28.2 25.3-44 35.9-6.3 4.2-13 6.2-20.6 6.2-43.5-0.1-87-0.2-130.4 0-8.5 0-16.1-2.1-22.9-6.9-26-18.4-50.7-38.4-71.2-63.1-2.8-3.3-5.3-6.8-7-10.8-1.8-4.3-1.3-5.3 3.3-5.6 0.8 0 1.7 0 2.5 0q77.7 0 155.4 0 2.3 0 4.5 0c-0.2 0.2-0.2 0.3-0.2 0.4z"/>
		<path class="s0" d="m280 310.9c-22.8 0-45.6 0-68.5 0-1.5 0-3 0.1-4.5-0.1-5.1-0.5-6.2-2-4.2-6.8 4.1-9.8 8.3-19.5 12.6-29.2 13.2-30.2 26.5-60.3 39.4-90.6 2.7-6.4 6.5-9 13.2-8.6 7.6 0.4 15.3 0.4 23 0 7.2-0.4 11.2 2.5 14 9.1 9.8 23.5 19.9 46.9 30 70.3 6.9 16.1 14 32.2 20.9 48.3 2.7 6.3 1.9 7.5-5 7.5-23.6 0.1-47.3 0.1-70.9 0.1z"/>
		<path class="s0" d="m364.4 204.9c0.1 11-10.9 22.1-21.7 21.9-2 0-3.8-0.9-5.4-2.3-6-5.1-9.4-19.1-6.5-26.3 2.9-7.3 11.7-12.4 18.9-10.9 8.3 1.7 14.6 9.1 14.7 17.6z"/>
		<path class="s0" d="m366.6 80.4c-17.1-2.5-32.9-8.5-48.9-17.2 3.4-0.4 6-0.4 8.6 0.2 2.6 0.6 5.2 1 7.8 1.6 11.9 3 23.5 6.5 33 14.9-0.2 0.2-0.4 0.4-0.5 0.5z"/>
		<path class="s0" d="m438.9 128.2c-14.8-4.9-29-9.7-43.5-14.5 9.9-5.3 34.9 3 43.5 14.5z"/>
		<path class="s0" d="m479.8 192.2c-8.5-1.8-15.1-6.9-22.6-13.1 11.3-0.5 18 4.8 23.4 12.4-0.2 0.2-0.5 0.4-0.8 0.7z"/>
		<path class="s0" d="m390.2 75.8c7 2.4 11.1 8.1 15.2 13.7 1.5 2 2.8 4 4 6.3-8.5-4.5-15.4-10.7-20-19.3 0.2-0.2 0.5-0.5 0.8-0.7z"/>
		<path class="s0" d="m388.1 96.8c-3.9 0-7.9 0.3-11.8-0.1-4.8-0.5-9.8-0.5-15.5-2.5 10-2.1 18.8-1.7 27.3 2.6z"/>
		<path class="s0" d="m389.3 76.5c0-0.4-0.1-0.8-0.1-1.1 0.3 0.2 0.6 0.3 0.9 0.5-0.2 0.1-0.5 0.4-0.8 0.6z"/>
		<path class="s0" d="m367.1 79.9c0.3 0.1 0.9 0.1 0.6 0.7-0.1 0.1-0.7-0.1-1.1-0.2 0.1-0.1 0.3-0.3 0.5-0.5z"/>
		<path class="s0" d="m454.2 144.8c0.4 0.1 0.9 0.3 0.5 0.9-0.1 0.1-0.8-0.1-1.2-0.2 0.2-0.2 0.4-0.4 0.7-0.7z"/>
		<path class="s0" d="m480.7 191.5c0 0.4 0 0.8 0.1 1.2-0.3-0.2-0.6-0.4-0.9-0.5 0.2-0.3 0.5-0.5 0.8-0.7z"/>
		<path class="s0" d="m234.4 491.8c-18.8-1.2-36-7-52.6-18.5 13.3 0.6 43.9 11.3 52.6 18.5z"/>
		<path class="s0" d="m112.5 426.4c14.9 3.8 28.4 8.4 41.9 14.6-11.3 4.1-33.6-3.6-41.9-14.6z"/>
		<path class="s0" d="m161.8 479.6c-9.5-5-15.8-12.3-21-21.1 6.8 0.9 18.9 12.9 21 21.1z"/>
		<path class="s0" d="m92.6 375.2c-10.7-0.6-17.7-5.3-23.4-14.5 8.8 4.2 17 6.9 23.4 14.5z"/>
		<path class="s0" d="m162.8 457.9c8.8-1.3 17.6-0.4 26.2 1.7-8.9 2.3-17.6 1.9-26.2-1.7z"/>
	</g>
</svg>